<?xml version="1.0" standalone="no"?>
<!DOCTYPE svg PUBLIC "-//W3C//DTD SVG 20010904//EN"
 "http://www.w3.org/TR/2001/REC-SVG-20010904/DTD/svg10.dtd">
<svg version="1.0" xmlns="http://www.w3.org/2000/svg"
 width="1100.000000pt" height="246.000000pt" viewBox="0 0 1100.000000 246.000000"
 preserveAspectRatio="xMidYMid meet">

<g transform="translate(0.000000,246.000000) scale(0.100000,-0.100000)"
fill="#007a33" stroke="none">
<path d="M0 1230 l0 -1230 5500 0 5500 0 0 1230 0 1230 -5500 0 -5500 0 0 -1230" fill="white" />
<path d="M0 1230 l0 -1230 5500 0 5500 0 0 1230 0 1230 -5500 0 -5500 0 0
-1230z m5960 5 c0 -450 -3 -685 -10 -685 -7 0 -10 235 -10 685 0 450 3 685 10
685 7 0 10 -235 10 -685z m-4690 405 c102 -25 150 -74 165 -167 l7 -43 -110 0
-109 0 -7 30 c-10 50 -55 63 -221 63 -162 -1 -217 -12 -243 -50 -15 -23 -17
-53 -17 -208 0 -209 7 -237 64 -257 47 -17 344 -17 384 0 17 7 34 26 43 47
l14 35 106 0 106 0 -6 -37 c-4 -21 -17 -58 -29 -83 -42 -86 -135 -110 -427
-109 -183 0 -300 14 -364 44 -81 39 -107 120 -113 360 -5 156 -3 175 17 227
37 99 111 139 293 158 104 11 388 5 447 -10z m5725 10 c161 -24 207 -61 229
-182 l7 -38 -109 0 -108 0 -12 34 c-18 49 -57 60 -222 59 -152 0 -213 -12
-236 -48 -25 -38 -35 -156 -25 -285 5 -64 15 -128 21 -142 19 -42 74 -53 250
-53 175 1 210 11 229 65 l10 31 103 -3 103 -3 -3 -35 c-2 -19 -13 -55 -25 -80
-42 -86 -135 -110 -427 -109 -252 0 -375 26 -419 88 -44 61 -56 135 -56 336 0
166 2 194 19 225 33 62 67 90 137 111 114 35 389 49 534 29z m-5145 -325 l0
-325 220 0 220 0 0 -70 0 -70 -330 0 -330 0 0 395 0 395 110 0 110 0 0 -325z
m1423 -63 c103 -213 187 -391 187 -395 0 -4 -50 -7 -111 -7 l-110 0 -34 75
-34 75 -240 0 -240 0 -35 -75 -35 -75 -111 0 c-90 0 -111 3 -108 14 2 8 84
185 183 395 l180 381 161 0 161 0 186 -388z m1140 364 c54 -20 96 -61 114
-108 6 -18 12 -69 12 -113 1 -122 -33 -173 -136 -201 -32 -8 -39 -13 -23 -14
38 -1 107 -36 124 -63 9 -13 23 -67 31 -118 8 -52 17 -106 20 -121 l5 -28
-109 0 -109 0 -17 98 c-21 116 -26 127 -68 149 -26 14 -67 18 -219 21 l-188 4
0 -136 0 -136 -110 0 -110 0 0 396 0 395 368 -3 c323 -4 373 -6 415 -22z
m1137 -41 l0 -65 -275 0 -275 0 0 -95 0 -95 258 -2 257 -3 3 -57 3 -58 -261 0
-260 0 0 -110 0 -110 275 0 275 0 0 -65 0 -65 -385 0 -385 0 0 395 0 395 385
0 385 0 0 -65z m2170 -330 l0 -395 -110 0 -110 0 0 395 0 395 110 0 110 0 0
-395z m549 172 c58 -122 124 -269 147 -327 l43 -105 20 48 c12 27 21 51 21 54
0 2 57 128 126 279 l127 274 113 0 c63 0 114 -1 114 -3 0 -2 -80 -179 -178
-393 l-179 -389 -164 0 -164 0 -177 390 c-98 215 -178 391 -178 393 0 1 51 2
113 2 l112 0 104 -223z m1151 -172 l0 -395 -110 0 -110 0 0 395 0 395 110 0
110 0 0 -395z m540 70 l0 -325 235 0 236 0 -3 -67 -3 -68 -340 0 -340 0 -3
393 -2 392 110 0 110 0 0 -325z"/>
<path d="M2840 1335 c-47 -102 -86 -190 -88 -195 -2 -6 64 -10 177 -10 100 0
181 2 181 5 0 10 -162 353 -173 369 -10 13 -27 -18 -97 -169z"/>
<path d="M3850 1390 l0 -130 188 1 c204 0 249 8 269 49 16 31 17 131 1 164
-17 38 -61 46 -270 46 l-188 0 0 -130z"/>
</g>
</svg>
