<?xml version="1.0" encoding="UTF-8"?> <svg xmlns="http://www.w3.org/2000/svg" width="313" height="83" viewBox="0 0 313 83" fill="none"><g clip-path="url(#clip0)"><path d="M0 27.2C0 19.1 0 11 0 2.99999C0 1.99999 0.3 1.69999 1.3 1.59999C13.1 0.399994 25 -0.200005 36.8 0.0999945C45.7 0.299995 54.6 1.09999 63.5 1.59999C64.6 1.69999 64.4 2.29999 64.4 2.99999C64.4 15 64.4 27 64.4 38.9C64.4 43.4 64.5 48 64.3 52.5C63.9 60.7 60.2 67.3 54 72.6C47.8 77.8 40.6 80.7 32.8 82.5C32.2 82.6 31.6 82.5 31 82.3C23 80.4 15.6 77.2 9.5 71.6C3.1 66 0.1 58.8 0 50.4C0 42.7 0 34.9 0 27.2ZM11.3 9.09999C11.4 8.89999 11.6 8.69999 11.6 8.59999C11.1 8.19999 10.5 7.89999 10 7.39999C9.4 6.59999 8.6 6.39999 7.7 6.79999C9.7 9.19999 9.7 9.19999 11.3 9.09999C11.3 9.39999 11.2 9.79999 11.1 10.2C11.9 9.99999 12.6 9.89999 13.2 9.59999C13.8 9.39999 14.4 8.99999 15 8.69999C14.8 9.19999 14.5 9.59999 14.1 9.89999C13.5 10.3 12.8 10.5 12.2 10.8C9.8 11.9 9.1 13.7 10.2 16C10.3 16.2 10.1 16.6 10.1 16.9C10.1 17.2 10.2 17.6 10.2 17.9C10.5 17.8 10.9 17.8 11.2 17.6C11.5 17.4 11.7 17 11.9 16.7C11.4 15.8 10.4 14.9 10.8 13.7C11.2 14.6 11.7 15.5 12.1 16.4C12.2 16.6 12.2 17 12.1 17.3C12 17.5 11.8 17.7 11.6 17.8C11.9 17.9 12.2 18.2 12.5 18.1C13.5 18 13.8 16.7 13.1 15.8C12.1 14.4 11.9 13.5 12.4 12.4C12.5 14.1 12.7 14.6 13.9 16C14.1 16.2 14.1 16.6 14.1 17C15.1 17.1 15.7 16.4 15.3 15.5C15.1 15 14.6 14.5 14.4 14C14.1 13.3 14 12.6 13.8 11.6C14.7 13.3 15.4 14.6 16.1 16C17.1 15.3 17.1 14.8 16.4 13.9C16 13.4 15.8 12.8 15.5 12.2C15.6 12.1 15.7 12.1 15.8 12C15.9 12.3 15.9 12.7 16.1 12.9C16.3 13.1 16.7 13.4 17.1 13.4C17.4 13.4 17.8 13.1 17.8 12.8C17.8 12.5 17.5 12.2 17.3 11.9C17.1 11.4 16.7 10.9 16.7 10.5C16.8 8.99999 17 7.39999 17.1 5.89999C17.1 5.69999 17 5.49999 16.9 5.29999L15 4.79999C14.9 4.79999 14.8 4.79999 14.8 4.79999C13.2 3.99999 12 5.29999 10.6 5.49999C10.5 5.49999 10.4 5.89999 10.3 6.09999C10.5 6.19999 10.7 6.29999 11 6.29999C11.2 6.29999 11.3 6.09999 11.5 5.99999C11.5 6.09999 11.6 6.19999 11.6 6.19999C11.3 6.39999 10.9 6.59999 10.5 6.89999C11.7 8.49999 12.9 6.89999 14.1 6.79999C14.1 7.79999 14 8.49999 12.9 8.59999C12.4 8.69999 11.8 8.89999 11.3 9.09999ZM32.4 6.19999C32.4 5.99999 32.4 5.79999 32.4 5.59999C30.6 5.29999 28.8 4.79999 27 4.69999C25.2 4.49999 23.4 4.69999 21.6 4.69999C19.8 4.69999 18.3 5.89999 18.1 7.69999C18 9.49999 19.2 10.9 21 11.1C21.5 11.1 22 11.1 22.5 11C24.3 10.9 26.1 10.7 27.8 10.7C28.5 10.7 29.4 11.1 30 11.6C30.7 12.2 30.4 13.3 29.6 13.4C28 13.5 26.2 13.7 24.7 13.3C22 12.7 19.6 13 17.2 14.2C17.6 15.8 17.4 16.1 16.2 17C15.5 17.5 14.7 17.9 13.9 18.3C13.2 18.7 12.6 18.9 11.8 19.1C11.3 19.2 10.9 20.3 10.5 20.9C10.5 20.9 10.4 20.9 10.2 20.9C10.1 19.6 9.3 20 8.5 20.1C8.7 20.3 8.8 20.5 8.8 20.6C8.4 21 8.1 21.4 7.8 21.9C8.1 22 8.2 22.1 8.3 22.1C8.5 22.2 8.6 22.3 8.8 22.3C8 22.8 8 22.9 9 23.9C9.6 23.6 10.1 23.4 10.6 23.2C11.3 22.5 11.8 21.5 13.2 21.7C13.3 21.7 13.4 21.7 13.5 21.6C14.6 20.7 15.9 20 16.7 18.7C16.8 18.5 17 18.2 17.2 18.1C18.8 17.2 20.3 16.3 21.9 15.5C21.8 15.3 21.7 15.1 21.5 15C21.6 14.9 21.7 14.8 21.8 14.7C22.3 15.1 22.9 15.4 23.1 15.9C23.9 17.7 25.1 18.5 27.1 18.4C28.6 18.3 29.1 19.4 28.4 20.6C27.7 20.6 27 20.6 26.4 20.6C26.3 21.7 26.3 22.7 26.2 23.3C27.4 23.5 28.4 23.7 29.4 23.9C29.8 22.3 31.3 20.7 30.8 18.6C30.8 18.2 30.9 17.7 30.7 17.4C30.2 16.6 29.6 16.5 29 17.2C28.6 16.5 28.4 15.8 27.9 15.4C27.3 15 26.5 15 25.8 14.9C26.7 14.7 27.6 14.6 28.6 14.7C29.6 14.8 30.6 14.7 31.1 13.7C31.7 12.7 31.4 11.8 30.7 10.9C30.5 10.6 30.4 10.3 30.2 9.89999C30 9.39999 29.7 8.89999 29.4 8.29999C29 8.99999 28.7 9.39999 28.4 9.79999C28 9.19999 27.6 8.79999 27.3 8.29999C26.9 8.89999 26.6 9.29999 26.3 9.69999C25.9 9.29999 25.5 8.99999 25.2 8.59999C24.9 9.09999 24.6 9.49999 24.4 9.79999C23.9 9.39999 23.5 8.99999 23.1 8.69999C22 10.2 21 10.5 20 9.89999C19.1 8.99999 19 7.79999 19.9 6.19999C20.9 7.09999 22 6.79999 23.2 6.69999C24.8 6.59999 26.4 6.79999 28 6.89999C29 6.89999 30 6.89999 30.9 6.79999C31.4 6.69999 31.9 6.39999 32.4 6.19999ZM16 60.8C16 61.9 16 62.9 16 64C17.2 64 18.4 64 19.6 64C19.6 64.1 19.6 64.2 19.6 64.2C19.3 64.3 19 64.4 18.8 64.5C18.8 65.5 18.8 66.4 18.8 67.3C19.2 67.4 19.5 67.5 19.8 67.6C19.8 67.7 19.8 67.8 19.8 67.9C18.4 68 17.1 68.1 15.7 68.2C15.6 69.1 15.5 70 15.4 71.1C14.5 69.9 16.1 68 14.1 67.5C15.5 67.5 16.8 67.5 18.2 67.5C18.2 66.5 18.2 65.5 18.2 64.3C16.9 64.3 15.6 64.3 14.3 64.3C14.3 64.2 14.3 64.1 14.3 64C14.6 63.9 15 63.9 15.4 63.8C15.4 62.8 15.4 61.9 15.4 61C15.1 60.9 14.8 60.8 14.6 60.6C14.6 60.5 14.6 60.4 14.6 60.4C15.7 60.3 16.9 60.3 18.1 60.2C18.1 59.5 18 58.9 18 58.2C16.6 58.3 15.4 58.4 14.1 58.4C13.9 62.5 13.6 66.3 13.4 70.2C13.4 70.5 13.9 71.1 14.2 71.1C15.6 71.3 17 71.4 18.4 71.3C20.4 71.2 20.4 71.1 20.3 69.1C20.1 65.5 20 62 19.8 58.4C19.3 58.4 18.9 58.3 18.2 58.2C18.6 59.2 18.9 59.9 19.2 60.6C18.4 60.8 17.3 60.8 16 60.8ZM45.7 58.5C45.6 58.4 45.5 58.3 45.4 58.2C45.1 58.5 44.5 58.8 44.5 59.1C44.3 62.8 44.1 66.5 44 70.2C44 70.5 44.5 71.2 44.8 71.2C46.6 71.3 48.3 71.3 50.1 71.2C50.8 71.2 51 70.7 51 70C50.9 68.5 50.8 67.1 50.7 65.6C50.6 63.3 50.4 60.9 50.3 58.4C49 58.3 47.7 58.3 46.4 58.2C46.4 58.9 46.4 59.5 46.4 60.1C47.6 60.2 48.7 60.2 49.9 60.3C49.9 60.4 49.9 60.5 49.9 60.6C49.6 60.7 49.3 60.8 49 60.9C49 61.9 49 62.8 49 63.7C49.4 63.8 49.7 63.9 50 64C50 64.1 50 64.2 50 64.3C48.8 64.3 47.5 64.3 46.2 64.3C46.2 65.5 46.2 66.5 46.2 67.6C47.6 67.5 48.9 67.5 50.2 67.4C48.8 67.8 49.2 68.9 49.3 69.8C49.3 70.1 49.3 70.5 49.2 70.9C49.1 70.9 49 70.9 48.9 70.9C48.8 70 48.7 69.1 48.7 68.2C47.3 68.1 45.9 68 44.6 67.9C44.6 67.8 44.6 67.7 44.6 67.5C44.9 67.5 45.2 67.4 45.6 67.3C45.6 66.3 45.6 65.4 45.6 64.5C45.3 64.4 45.1 64.3 44.8 64.2C44.8 64.1 44.8 64 44.8 63.9C46 63.9 47.3 63.9 48.6 63.9C48.5 62.8 48.5 61.8 48.4 60.7C47.2 60.7 46.1 60.7 45 60.7C46.2 60.3 45.8 59.3 45.7 58.5ZM43.5 58.8C43.7 57.4 43.8 56.1 44 54.7C43.4 54.7 42.9 54.8 42.4 54.8C42.4 55.6 42.4 56.3 42.4 57C41.4 57 40.5 57 39.6 57C39.6 56.2 39.6 55.6 39.6 54.9C38.5 54.9 37.6 54.9 36.5 54.9C36.5 55.7 36.5 56.4 36.5 57C35.5 57 34.7 57 33.7 57C33.7 56.2 33.7 55.6 33.7 54.9C32.7 54.9 31.7 54.9 30.7 54.9C30.7 55.7 30.7 56.4 30.7 57C29.7 57 28.8 57 27.9 57C27.9 56.2 27.8 55.6 27.8 54.8C26.8 54.8 25.9 54.8 24.9 54.8C24.9 55.6 24.8 56.3 24.8 57C23.8 57 23 57 22 57C22 56.2 22 55.6 22 54.8C21.4 54.8 21 54.8 20.4 54.8C20.6 56.2 20.7 57.4 20.9 58.8C28.4 58.8 36 58.8 43.5 58.8ZM20.7 59.5C20.9 63.1 21.1 66.5 21.2 69.9C23.2 69.9 25.1 69.9 27.1 69.9C27.1 68.5 27.1 67.1 27.1 65.7C27 63.3 28 61.5 30.2 60.4C30.5 60.3 30.6 59.9 31 59.5C27.3 59.5 24.1 59.5 20.7 59.5ZM43.8 59.5C40.5 59.5 37.5 59.5 34.4 59.5C34.2 59.5 34 59.7 33.8 59.8C33.9 60 34 60.3 34.2 60.4C36.7 61.5 37.5 63.6 37.4 66.2C37.4 67.5 37.4 68.7 37.4 70C39.5 70 41.3 70 43.3 70C43.5 66.5 43.6 63.1 43.8 59.5ZM49.8 8.99999C49.7 9.09999 49.5 9.19999 49.4 9.29999C50.3 10.8 51.1 12.3 52 13.8C52.5 14.6 52.4 14.6 51.8 15.3C50.5 13.3 49.5 11.2 47.9 9.39999C47.9 9.79999 48 10.2 48.2 10.5C49.2 12.2 50.2 13.9 51.2 15.6C51.4 16 51.4 16.6 51.4 17.1C51.3 17.1 51.2 17.2 51 17.2C50.8 16.9 50.6 16.6 50.4 16.3C49.2 14.2 48 12.2 46.7 10.1C46.5 9.79999 46.2 9.49999 45.9 9.19999C45.8 9.29999 45.7 9.29999 45.6 9.39999C45.8 9.79999 46 10.1 46.2 10.5C47.6 12.8 48.9 15.2 50.3 17.5C50.7 18.1 50.7 18.6 50.1 19.1C48.2 15.8 46.3 12.6 44.4 9.39999C44.1 8.99999 43.7 8.59999 43.4 8.29999C43.3 8.39999 43.3 8.39999 43.2 8.49999C45.2 11.9 47.1 15.3 49.2 18.6C49.7 19.5 50.2 20.2 49.6 21.2C51.9 21.9 52 24.9 49.1 27C49.7 27.2 50.3 27.4 50.9 27.6C52.9 21.8 54.9 16.2 56.9 10.5C56.5 10.3 56.2 10.2 55.8 10.1C54.3 13.9 52.8 17.7 51.3 21.5C51.2 21.5 51 21.4 50.9 21.4C52.4 17.6 53.9 13.8 55.4 9.79999C54.8 9.79999 54.5 9.89999 54.2 9.89999C53.6 9.49999 53.7 8.39999 52.7 8.29999C52.7 9.59999 54.6 10.4 53.5 12C52.8 10.9 52.1 9.79999 51.5 8.79999C51.4 8.89999 51.2 8.99999 51.1 9.09999C51.7 10.1 52.3 11.2 52.9 12.2C53.1 12.6 53.1 13.1 53.1 13.6C53 13.6 52.8 13.6 52.7 13.7C51.6 11.9 50.7 10.5 49.8 8.99999ZM42.7 5.09999C43.2 5.29999 43.7 5.79999 43.5 6.59999C43.3 7.39999 43.7 7.59999 44.2 7.79999C46.4 8.89999 48.5 8.79999 50.8 7.99999C51.9 7.59999 53 7.09999 54.2 6.79999C54.6 6.69999 55.1 6.69999 55.5 6.79999C56.2 7.09999 56.8 7.59999 57.5 7.99999C57.7 7.89999 57.8 7.79999 58 7.69999C57.9 6.99999 58 6.09999 57.7 5.49999C57.3 4.59999 56.3 4.39999 55.4 4.59999C53.9 4.89999 52.5 5.29999 51 5.69999C48.5 6.39999 46.2 6.29999 44.1 4.59999C43.7 4.29999 43.3 4.09999 42.9 3.89999C42 3.59999 41 3.59999 40.3 4.39999C39.7 5.09999 39.6 5.89999 40.2 6.69999C40.7 7.29999 42.1 7.59999 42.5 6.99999C42.7 6.69999 42.6 5.89999 42.7 5.09999ZM41 8.09999C40.9 9.89999 40.7 11.7 40.8 13.4C41 18 42.9 21.7 46.7 24.4C47.7 25.1 48.5 24.8 48.9 23.7C49.3 22.8 49 22.1 48.1 21.5C45.4 19.6 43.5 17.1 42.8 13.9C42.4 12 42.3 9.99999 42.1 7.99999C42 8.09999 41.7 8.09999 41 8.09999ZM32.3 40.4C33.1 39.5 33.9 38.7 34.7 37.9C33.6 36.8 32.4 35.6 31.2 34.4C31.3 34.3 31.4 34.2 31.4 34.1C31.7 34.3 32.1 34.6 32.5 34.9C33.1 34.3 33.8 33.7 34.5 33C32.7 33 31.2 33 29.6 33C30.8 34.8 32.1 36.5 30.4 38.5C30.2 38.8 29.9 39.1 29.8 39.5C29.7 40.2 29.5 40.9 29.7 41.6C30 42.4 30.7 43.1 31 43.9C31.2 44.5 31.1 45.3 30.9 45.9C30.6 46.7 30.1 47.5 29.6 48.2C31.1 48.2 32.6 48.2 34.1 48.2C33.5 47.6 32.9 47 32.3 46.4C32.1 46.5 31.8 46.7 31.5 46.8C31.4 46.7 31.4 46.6 31.3 46.5C32.3 45.5 33.4 44.5 34.4 43.6C33.6 42.8 32.8 42.1 32 41.3C31.7 41.5 31.4 41.8 31 42.1C30.9 42 30.9 42 30.8 41.9C31.1 41.5 31.4 41.2 31.6 40.8C31.3 40.4 31 40.1 30.8 39.7C30.8 39.6 30.9 39.6 30.9 39.5C31.6 39.8 31.9 40.1 32.3 40.4ZM26 29C26.3 29 26.4 28.9 26.6 28.9C30.3 28.9 34 28.9 37.7 28.9C38.2 28.9 38.6 28.9 39.1 29C39.9 29.2 40.4 29.7 40.3 30.6C40.2 31.4 39.7 31.7 39 31.8C38.5 31.8 38 31.8 37.5 31.8C34.6 31.8 31.7 31.8 28.7 31.8C28.7 32.3 28.8 32.6 28.8 32.8C29.7 32.7 30.4 32.5 31.1 32.5C33.8 32.5 36.5 32.5 39.3 32.5C40.2 32.5 41 32.2 41.1 31.4C41.3 30.7 41.2 29.7 40.8 29.3C40.3 28.7 39.3 28.3 38.5 28.2C37 28 35.6 28.2 34.1 28.2C31.2 28.2 28.4 28.2 25.4 28.2C25.4 34.7 25.4 41 25.4 47.4C25.9 47.4 26.3 47.4 26.6 47.4C26.4 46.8 26.2 46.2 26.2 45.7C26.1 44.7 26.2 43.8 26.2 42.8C26 38.2 26 33.6 26 29ZM10.9 42.7C12.8 42.7 14.7 42.7 16.7 42.7C16.7 43.6 16.6 44.3 16.7 45C16.8 45.6 16.3 46.5 17.3 47.2C17.3 46.5 17.3 46.1 17.3 45.7C17.3 42.8 17.3 40 17.3 37.1C17.3 36.8 17.4 36.4 17.4 36.1C17.4 35.6 17.5 35.2 17.5 34.7C17.1 34.7 16.5 34.6 16.5 34.7C16.4 35.2 16.4 35.7 16.4 36.1C16.4 36.2 16.3 36.2 16.3 36.4C14.5 36.4 12.7 36.4 10.9 36.4C10.9 38.5 10.9 40.5 10.9 42.7ZM50.8 57.9C49.2 55.5 50.7 53.5 51.5 51.5C51 51.4 50.7 51.3 50.4 51.2C50.1 51.7 49.9 52.2 49.7 52.7C49.2 52.6 48.7 52.6 48.2 52.5C48.2 52 48.1 51.5 48.1 51C47.6 51 47.2 51 46.7 51C46.7 51.5 46.6 52 46.6 52.4C45.2 53.1 44.8 52.2 44.4 51.1C44 51.2 43.6 51.3 43.2 51.4C44.1 53.5 45.6 55.4 44 57.8C46.3 57.9 48.5 57.9 50.8 57.9ZM20.1 51.1C19.8 52.3 19.3 53 18 52.4C18 51.9 17.9 51.4 17.9 50.8C17.3 50.8 16.9 50.8 16.4 50.9C16.3 51.5 16.3 52 16.2 52.6C15.6 52.5 15 52.6 14.7 52.4C14.4 52.1 14.2 51.6 14 51.1C13.6 51.2 13.3 51.4 12.9 51.5C13.9 53.6 15.2 55.5 13.7 57.8C16 57.8 18.2 57.8 20.4 57.8C18.8 55.3 20.3 53.4 21.2 51.3C20.9 51.3 20.5 51.2 20.1 51.1ZM47.7 42.7C49.8 42.7 51.7 42.7 53.5 42.7C53.5 40.5 53.5 38.4 53.5 36.3C51.6 36.3 49.8 36.3 47.9 36.3C48 36.1 48 36 48 35.9C48 35.5 47.9 35 47.8 34.6C47.8 34.5 46.9 34.6 46.8 34.7C46.7 35 46.7 35.5 46.8 35.9C46.8 36.3 47 36.7 47 37.1C47 40.1 47 43.1 47 46C47 46.3 47.2 46.6 47.2 47C47.3 47 47.5 47 47.6 46.9C47.7 45.6 47.7 44.3 47.7 42.7ZM23.7 17.6C23.4 17.1 23.2 16.6 22.8 16.2C22.6 16 22.2 15.8 22 15.9C21.3 16 20.1 18 20.2 18.8C20.3 19.3 20.3 19.9 20.4 20.4C20.1 20.6 19.8 20.7 19.5 20.9C19.5 20.8 19.5 20.7 19.5 20.6C19.1 20.5 18.6 20.3 18.2 20.2C18.1 20.2 18 20.6 18 20.7C17.4 21.1 17 21.5 16.6 21.8C17.1 22.7 17.5 23.4 17.9 24.1C18.5 23.7 18.8 22.6 19.5 23.3C20.2 22.8 20.8 22.4 21.5 22C22 21.7 22.6 21.6 23 21.3C23.9 20.6 23.9 19.6 23.1 19C23.2 18.4 23.4 18 23.7 17.6ZM7.1 7.99999C6.8 9.39999 5.9 9.29999 5.1 9.09999C5.1 9.69999 5.2 10.3 5.2 10.8C4.9 10.8 4.7 10.9 4.3 10.9C4.9 11.9 5.5 12.7 6 13.6C6.5 14.6 8.1 15.4 9.3 15.1C9.3 14.4 9.3 13.7 9.3 13C8.6 12.5 7.9 12 7.2 11.5C7.5 11.3 7.8 11.2 8 11C8.7 10.5 8.5 9.69999 7.8 9.79999C7.6 9.29999 7.4 8.69999 7.1 7.99999ZM26.7 29.9C26.6 30.1 26.6 30.2 26.6 30.3C26.6 35.5 26.6 40.6 26.6 45.8C26.6 46.2 26.9 46.5 27.1 46.9C27.3 46.9 27.4 46.8 27.6 46.8C27.6 45.8 27.7 44.8 27.7 43.8C27.7 43.2 27.7 42.6 27.7 41.9C27.7 41 27.7 40.1 27.7 39.2C27.7 38.5 27.7 37.9 27.7 37.2C27.7 36.6 27.7 36 27.7 35.4C27.7 34.8 27.6 34 27.8 33.5C28.3 32.1 27.9 30.6 26.7 29.9ZM27.9 29.5C28.5 30.6 29.1 31.2 30.4 31.1C33.1 31 35.8 31.1 38.4 31C38.8 31 39.5 30.7 39.5 30.4C39.7 29.6 39 29.5 38.4 29.4C36.9 29.4 35.5 29.4 34 29.4C32 29.5 30 29.5 27.9 29.5ZM44.2 50C44.8 50.8 45.2 51.4 45.8 52.2C45.9 51.4 46 50.9 46.1 50.3C47 50.3 47.8 50.3 48.7 50.3C48.8 50.9 48.9 51.5 49 52.2C49.6 51.4 50.1 50.8 50.6 50C50.1 48.3 49 47.4 47.2 47.5C45.7 47.6 44.5 48.6 44.2 50ZM20.3 50C19.9 48.4 18.6 47.4 16.9 47.5C15.3 47.6 14.1 48.7 14 49.9C14.6 50.7 15 51.3 15.6 52.2C15.7 51.4 15.8 50.8 15.9 50.2C16.8 50.2 17.6 50.2 18.5 50.2C18.6 50.8 18.6 51.3 18.7 52.1C19.3 51.4 19.7 50.8 20.3 50ZM40.7 32.7C40.5 32.6 40.4 32.6 40.2 32.5C40 32.9 39.7 33.3 39.7 33.7C39.7 38.3 39.7 42.8 39.7 47.4C39.7 47.6 39.8 47.8 39.8 48C39.9 48 40 48.1 40.1 48.1C40.3 47.8 40.6 47.4 40.6 47.1C40.8 42.3 40.7 37.5 40.7 32.7ZM35 65.2C34.3 64.9 33.4 64.6 34.5 63.9C34.2 63.5 34 63.1 33.7 62.7C33.1 64.2 32.6 63.2 32.2 62.7C31.6 63.7 31.3 63.7 30.7 62.8C30.4 63.1 30.1 63.5 29.8 63.8C31.3 64.8 29.7 64.9 29.4 65.2C29.9 65.7 30.3 66.1 30.7 66.4C30.9 66.1 31.1 65.8 31.4 65.5C31.7 65.8 32 66.1 32.3 66.4C32.5 66.1 32.8 65.8 33 65.5C33.3 65.8 33.5 66.1 33.7 66.4C34.1 66.1 34.5 65.7 35 65.2ZM37.4 40.6C36.7 39.9 35.9 39.2 35.1 38.4C34.3 39.2 33.6 40 32.7 40.9C33.4 41.6 34.2 42.3 35 43.1C35.8 42.3 36.6 41.5 37.4 40.6ZM37.7 35.1C37 34.4 36.3 33.7 35.5 32.9C34.6 33.7 33.8 34.5 33 35.3C33.8 36.2 34.5 36.9 35.3 37.8C36 36.8 36.8 36 37.7 35.1ZM37.9 41.1C37.1 42 36.3 42.8 35.4 43.7C35.8 44 36.2 44.4 36.6 44.8C36.9 45.2 37.2 45.7 37.4 46.1C40.2 44 39.7 42.4 37.9 41.1ZM38.1 35.6C37.3 36.5 36.5 37.3 35.8 38C36.5 38.7 37.3 39.4 38 40.2C39.9 38.5 40 37.3 38.1 35.6ZM47.1 26.7C46.8 26.9 46.2 27.2 46.2 27.5C46.2 28 46.5 28.7 46.8 28.9C47.7 29.4 48.7 29.7 49.7 30C50.1 30.1 50.8 29.8 51 29.4C51.2 29.1 50.9 28.3 50.7 28.2C49.5 27.6 48.3 27.2 47.1 26.7ZM35.2 48.3C35.9 47.5 36.6 46.9 37.1 46.3C36.3 45.5 35.6 44.7 34.9 43.9C34.2 44.6 33.5 45.2 32.8 45.8C33.7 46.7 34.4 47.4 35.2 48.3ZM41.2 48.5C41.1 48.4 41 48.4 41 48.3C40.2 48.4 39.4 48.6 38.6 48.6C36.3 48.6 34 48.6 31.8 48.6C30.8 48.6 29.8 48.4 28.7 48.3C28.7 48.5 28.7 48.8 28.7 49.3C32.4 49.3 36.2 49.3 39.9 49.3C40.3 49.3 40.8 48.8 41.2 48.5ZM24.7 43.1C24.1 42.6 23.7 42.3 23.4 41.9C23.1 41.6 23 41.3 22.8 40.9C22.3 41.3 21.4 41.8 21.5 42.1C21.7 43 22.3 43.7 22.7 44.5C22.7 44.6 22.9 44.6 23 44.5C23.6 44.3 24.1 44.1 24.7 43.8C24.7 43.6 24.7 43.2 24.7 43.1ZM23.5 31.5C23.5 31.3 23.4 31.2 23.4 31C23.2 30.6 23 30.3 22.8 29.9C22.3 30.4 21.5 30.9 21.5 31.3C21.6 32.1 22.2 32.8 22.6 33.5C22.6 33.6 22.9 33.6 23 33.5C23.5 33.3 24 33.1 24.7 32.8C24.7 32.6 24.7 32.1 24.7 31.7C24.2 31.7 23.9 31.6 23.5 31.5ZM47.4 25.5C47.7 26.4 48.4 26.4 49.1 26.1C50.3 25.7 51.1 23.8 50.7 22.6C50.5 21.8 49.9 21.6 49.1 21.8C50.1 23.4 49.5 24.8 47.4 25.5ZM31.3 59.5C31.3 60.4 31.4 61.3 31.4 62.2C32 62.2 32.4 62.2 32.9 62.2C32.9 61.3 33 60.4 33 59.5C32.5 59.5 32.2 59.5 31.8 59.5C31.8 59.5 31.6 59.5 31.3 59.5ZM57.3 9.99999C57.6 8.39999 57.6 8.39999 55.7 7.89999C54.7 7.59999 54.7 8.29999 54.4 8.99999C55.4 9.29999 56.3 9.59999 57.3 9.99999ZM38.3 34.8C38.7 34.3 39.1 33.7 39.7 32.9C38.3 32.9 37.4 32.9 36.4 32.9C37 33.6 37.6 34.1 38.3 34.8ZM38.9 48.2C38.5 47.7 38 47.1 37.7 46.8C37.1 47.3 36.6 47.7 36 48.2C37.2 48.2 38.1 48.2 38.9 48.2ZM28.9 47.8C29.3 47.2 29.8 46.9 29.8 46.7C29.8 46.4 29.4 45.9 29 45.8C28.8 45.7 28.2 46.2 28.2 46.5C28.2 46.8 28.6 47.2 28.9 47.8ZM29 35.8C29.4 35.2 29.8 34.8 29.8 34.6C29.7 34.3 29.3 33.8 29 33.8C28.8 33.8 28.2 34.3 28.2 34.5C28.2 34.8 28.6 35.2 29 35.8ZM30.2 38.3C29.7 37.9 29.4 37.4 29.1 37.4C28.7 37.4 28.4 37.9 28.1 38.1C28.4 38.4 28.6 38.9 29 38.9C29.3 39.1 29.6 38.7 30.2 38.3ZM30.2 42.9C29.7 42.5 29.3 42.1 29.1 42.1C28.8 42.2 28.5 42.6 28.2 42.9C28.5 43.2 28.8 43.6 29.1 43.7C29.3 43.7 29.7 43.3 30.2 42.9ZM35.7 66.6C35.7 67 35.7 67.4 35.7 67.9C36.1 67.9 36.4 67.9 36.8 67.9C36.8 67.4 36.8 67 36.8 66.6C36.4 66.6 36.1 66.6 35.7 66.6ZM36.8 70C36.8 69.5 36.8 69.1 36.8 68.6C36.4 68.6 36 68.6 35.7 68.6C35.7 69.1 35.7 69.5 35.7 69.9C36.1 70 36.4 70 36.8 70ZM27.8 63.6C28.8 64.3 29.2 63.9 29.5 62.9C29.2 62.7 29 62.4 28.6 62.1C28.4 62.7 28.1 63.1 27.8 63.6ZM35.8 62.1C35.2 62.5 34.6 62.9 35.3 63.5C35.6 63.7 36.1 63.7 36.5 63.8C36.5 63.7 36.6 63.6 36.6 63.4C36.3 63.1 36.1 62.6 35.8 62.1ZM36.8 64.4C35.6 64.4 35.4 64.9 35.8 65.8C36.1 65.8 36.5 65.8 36.8 65.7C36.8 65.3 36.8 64.9 36.8 64.4ZM35.2 62C35.2 61.9 35.2 61.7 35.2 61.6C34.8 61.3 34.3 61.1 33.9 60.8C33.8 60.9 33.7 60.9 33.6 61C33.8 61.4 33.8 62 34.1 62.3C34.2 62.4 34.8 62.1 35.2 62ZM30.6 35.3C29.4 36.3 29.4 36.6 30.6 37.4C30.6 36.7 30.6 36.1 30.6 35.3ZM29.3 61.6C29.6 62 29.8 62.4 30 62.7C30.2 62.7 30.3 62.7 30.5 62.6C30.6 62.1 30.8 61.6 30.9 61C30.8 60.9 30.7 60.9 30.6 60.8C30.1 61.1 29.7 61.3 29.3 61.6ZM39.3 45.1C38.8 45.5 38.4 45.8 38.1 46C38.5 46.5 38.9 46.9 39.3 47.3C39.3 46.6 39.3 45.9 39.3 45.1ZM28.8 67.9C28.8 67.4 28.8 67 28.8 66.5C28.4 66.5 28 66.5 27.7 66.5C27.7 67 27.7 67.4 27.7 67.8C28.1 67.9 28.4 67.9 28.8 67.9ZM27.7 68.7C27.7 69.2 27.7 69.6 27.7 70C28.1 70 28.5 70 28.8 70C28.8 69.5 28.8 69.2 28.8 68.7C28.4 68.7 28.1 68.7 27.7 68.7ZM27.7 65.8C28.1 65.8 28.4 65.8 28.8 65.8C29 64.9 28.8 64.4 27.7 64.5C27.7 64.9 27.7 65.3 27.7 65.8ZM30.7 45.5C30.7 44.9 30.6 44.3 30.6 43.5C29.5 44.4 29.5 45 30.7 45.5ZM39.3 41.8C39.3 41 39.3 40.5 39.3 39.8C38.9 40.1 38.5 40.4 38.1 40.7C38.6 41.1 38.9 41.4 39.3 41.8Z" fill="black"></path><path d="M240.3 19.4C240.5 19.2 240.7 18.8 241 18.7C241.8 18.5 242.1 18.1 242.1 17.3C242.1 13.6 242.1 9.9 242.1 6.3C242.1 5.6 241.8 5.1 241 4.9C240.8 4.9 240.6 4.5 240.4 4.3C240.7 4.2 240.9 3.9 241.2 3.9C243.5 3.9 245.9 3.8 248.2 4C251.4 4.2 253.6 6.1 254.1 9.2C254.4 10.9 254.4 12.7 254.1 14.4C253.6 17.6 251.4 19.5 248.1 19.7C245.6 19.9 243.1 19.7 240.6 19.7C240.5 19.6 240.4 19.5 240.3 19.4ZM245.3 5.3C245.3 9.7 245.3 14 245.3 18.4C246.2 18.3 247.1 18.3 247.9 18.2C249.4 18 250.4 17.2 250.7 15.8C251.3 13.2 251.4 10.5 250.6 7.9C250.1 6.3 249 5.5 247.2 5.4C246.6 5.3 246 5.3 245.3 5.3Z" fill="black"></path><path d="M221.5 7.59999C221.9 8.29999 222.2 8.79999 222.6 9.69999C221.6 9.89999 220.8 10.1 219.9 10.3C220.5 11.3 220.7 12.5 219.9 13.7C219.1 14.9 217.9 15.3 216.5 15.4C216 15.5 215.4 15.5 214.9 15.7C214.6 15.8 214.4 16.2 214.2 16.5C214.5 16.7 214.8 16.9 215.1 16.9C216 17 216.9 17 217.8 17C220 17.1 221.2 18 221.4 19.6C221.7 21.7 220.7 23.2 218.7 23.9C216.6 24.6 214.4 24.5 212.3 23.7C210.9 23.1 210.4 22 211 21C211.6 20 212.5 20.1 213.5 20.2C213.5 20.3 213.6 20.3 213.6 20.4C213.5 21.3 213.2 22.3 214.4 22.8C215.5 23.3 217.8 23.1 218.5 22.3C219.4 21.3 219 20 217.7 19.7C216.5 19.5 215.3 19.5 214.1 19.4C213.1 19.3 212.1 19.2 211.8 18C211.5 16.8 212.1 16 213.1 15.5C213.2 15.4 213.3 15.3 213.6 15.2C211.9 14.4 211 13.2 211.2 11.3C211.4 9.59999 212.4 8.59999 214 8.29999C215.2 8.09999 216.5 8.09999 217.7 8.29999C219 8.49999 220.3 8.59999 221.5 7.59999ZM217.9 11.8C217.4 10.9 217.1 9.99999 216.5 9.49999C215.9 8.99999 215 9.19999 214.4 9.89999C213.8 10.7 213.8 12.7 214.4 13.5C215 14.2 215.8 14.5 216.4 13.9C217.1 13.4 217.4 12.6 217.9 11.8Z" fill="black"></path><path d="M271.4 19.7C271.4 17.4 271.4 15.2 271.4 13C271.4 10.8 271.4 8.5 271.4 6.3C271.4 5.5 271.4 4.7 270.3 4.6C270.2 4.6 269.9 4.2 270 4C270 3.8 270.3 3.6 270.5 3.5C271.2 3.3 271.9 3.3 272.6 3.1C274.2 2.8 274.3 2.8 274.4 4.5C274.5 6.1 274.4 7.6 274.4 9.2C275.2 8.8 275.9 8.3 276.7 8.1C279 7.4 281.1 8.5 281.9 10.8C282.5 12.5 282.5 14.3 282.1 16.1C281.2 20.3 276.5 21.1 273.9 18.5C273.4 19.9 272.4 19.9 271.4 19.7ZM274.3 14.1C274.3 14.8 274.3 15.4 274.3 16.1C274.3 17.4 274.7 18 275.9 18.2C277.3 18.5 278.5 18 278.7 16.8C278.9 15.1 278.9 13.3 278.8 11.6C278.7 10.3 277.6 9.7 276.4 10C275 10.3 274.1 10.6 274.3 12.2C274.4 12.8 274.3 13.5 274.3 14.1Z" fill="black"></path><path d="M311.5 19.7C309.3 19.7 307.5 19.7 305.6 19.7C305.5 19.6 305.5 19.5 305.4 19.4C305.7 19.2 305.9 18.9 306.2 18.7C306.5 18.4 307 18 307 17.6C307.1 15.6 307.1 13.6 307 11.6C307 10.6 306.4 10.1 305.3 10.1C303.5 10.2 302.8 11 302.8 12.7C302.8 14.2 302.8 15.6 302.8 17.1C302.8 17.9 302.9 18.6 303.9 18.7C304.1 18.7 304.3 19.2 304.6 19.6C302.4 19.6 300.4 19.6 298.1 19.6C298.5 19.1 298.7 18.7 299 18.7C299.8 18.5 300 18 300 17.3C300 15.3 300 13.3 300 11.3C300 10.6 299.8 9.89999 298.9 9.79999C298.7 9.79999 298.5 9.49999 298.5 9.29999C298.5 9.09999 298.7 8.79999 298.9 8.79999C299.8 8.49999 300.8 8.19999 301.7 7.99999C301.9 7.99999 302.3 8.29999 302.4 8.49999C302.6 8.79999 302.6 9.19999 302.8 9.69999C303.1 9.49999 303.3 9.19999 303.6 9.09999C304.5 8.69999 305.4 8.09999 306.4 7.99999C308.5 7.69999 309.9 9.09999 309.9 11.3C309.9 13.2 309.9 15.1 309.9 17C309.9 17.8 309.8 18.6 310.9 18.8C311.1 18.8 311.2 19.3 311.5 19.7Z" fill="black"></path><path d="M113 7.79999C113.2 8.49999 113.4 8.99999 113.6 9.49999C114.6 8.99999 115.6 8.29999 116.7 8.09999C119.1 7.49999 120.7 8.89999 120.8 11.4C120.8 13.4 120.8 15.4 120.8 17.4C120.8 18.1 120.9 18.6 121.7 18.8C121.9 18.9 122.1 19.3 122.5 19.7C120.3 19.7 118.4 19.7 116.1 19.7C116.6 19.2 116.8 19 117 18.7C117.3 18.3 117.8 17.9 117.8 17.5C117.9 15.6 117.9 13.6 117.8 11.7C117.8 10.5 117.2 9.99999 116 10.1C114.3 10.2 113.6 10.9 113.6 12.6C113.6 14.1 113.6 15.5 113.6 17C113.6 17.8 113.6 18.6 114.7 18.7C114.9 18.7 115 19.2 115.3 19.6C113.2 19.6 111.3 19.6 109 19.6C109.3 19.2 109.5 18.8 109.8 18.7C110.6 18.5 110.8 18 110.8 17.3C110.8 15.3 110.8 13.3 110.8 11.4C110.8 10.6 110.6 9.89999 109.7 9.79999C109.5 9.79999 109.3 9.49999 109.3 9.39999C109.3 9.19999 109.5 8.89999 109.7 8.79999C110.8 8.39999 111.8 8.09999 113 7.79999Z" fill="black"></path><path d="M264.5 18.3C263.3 19.5 262 20.1 260.4 20C258.6 19.9 257.6 18.9 257.6 17C257.6 15.2 257.6 13.4 257.6 11.7C257.6 10.9 257.6 9.99999 256.5 9.79999C256.3 9.79999 256.1 9.39999 256.2 9.19999C256.2 8.99999 256.5 8.79999 256.7 8.69999C257.9 8.39999 259 8.19999 260.4 7.89999C260.4 8.39999 260.5 8.79999 260.5 9.19999C260.5 11.5 260.5 13.8 260.5 16.1C260.5 17.6 261 18.1 262.1 18.1C263.5 18.1 264.4 17.3 264.4 16C264.4 14.5 264.4 12.9 264.4 11.4C264.4 10.7 264.3 10.1 263.4 9.89999C263.2 9.89999 263 9.59999 263 9.39999C263 9.19999 263.2 8.89999 263.4 8.89999C264.6 8.59999 265.9 8.29999 267.3 7.99999C267.3 8.99999 267.3 9.79999 267.3 10.7C267.3 12.8 267.3 14.8 267.3 16.9C267.3 17.7 267.5 18.4 268.4 18.5C268.6 18.5 268.8 18.8 268.8 18.9C268.8 19.1 268.6 19.4 268.4 19.5C267.5 19.8 266.6 20 265.7 20.2C265.4 20.2 265.1 19.9 264.9 19.7C264.7 19.2 264.7 18.8 264.5 18.3Z" fill="black"></path><path d="M167.3 16C168 16 168.5 16 169.3 16C169.3 16.8 169.4 17.6 169.3 18.4C169.3 18.7 168.9 19.1 168.6 19.2C166.1 20.2 163.6 20.4 161.1 19.4C159 18.6 158 16.8 157.5 14.7C157 12.6 157.1 10.5 157.7 8.5C158.7 5.1 161.6 3.2 165 3.6C165.4 3.6 165.8 3.7 166.2 3.7C169 4 169.5 4.6 169.1 7.5C168.5 7.5 167.8 7.5 167.1 7.5C167 7.4 166.9 7.2 166.9 6.9C166.6 5.8 166 5.1 164.7 5C163.3 4.9 162.2 5.4 161.5 6.7C160.3 9.2 160.6 11.8 160.8 14.4C160.8 15 161 15.5 161.2 16.1C161.7 17.9 162.8 18.7 164.6 18.6C166.1 18.6 166.7 18 167.3 16Z" fill="black"></path><path d="M79.9 3.89999C84 3.89999 87.9 3.89999 92 3.89999C92.1 5.19999 92.1 6.39999 92.2 7.79999C91.7 7.79999 91.2 7.79999 90.8 7.79999C90 4.99999 89.7 5.29999 87.5 5.39999C87.5 6.79999 87.5 8.19999 87.5 9.69999C87.5 12.1 87.5 14.6 87.5 17C87.5 17.9 87.7 18.6 88.8 18.7C89.1 18.7 89.3 19.2 89.6 19.4C89.5 19.5 89.5 19.6 89.4 19.7C87.2 19.7 85 19.7 82.8 19.7C82.7 19.6 82.6 19.5 82.6 19.4C82.9 19.2 83.2 18.9 83.4 18.7C83.8 18.3 84.5 17.9 84.5 17.5C84.6 13.5 84.6 9.49999 84.6 5.49999C82.3 5.19999 82.1 5.29999 81.3 7.89999C80.9 7.89999 80.4 7.89999 79.9 7.89999C79.9 7.19999 80 6.59999 80 5.89999C79.8 5.19999 79.9 4.59999 79.9 3.89999Z" fill="black"></path><path d="M140.8 24.5C140.5 23.8 140.2 23.2 139.9 22.5C141.6 22.1 143.2 21.6 143.7 20.1C143.2 19.4 142.8 19 142.6 18.6C141.6 15.9 140.7 13.2 139.7 10.5C139.5 10 139.1 9.7 138.8 9.3C138.6 9 138.4 8.7 138 8.1C140.1 8.1 141.8 8.1 143.5 8.1C143.7 8.1 143.9 8.4 144.1 8.6C143.9 8.8 143.8 9.1 143.6 9.2C142.9 9.3 142.6 9.7 142.9 10.4C143.6 12.5 144.4 14.7 145.2 17.1C146 14.6 146.7 12.4 147.3 10.1C147.4 9.9 146.8 9.5 146.6 9.2C146.4 9 146.2 8.8 146 8.6C146.3 8.4 146.5 8.2 146.8 8.1C147.9 8 149 8.1 150.1 8.1C150.3 8.1 150.7 8.3 150.8 8.5C150.8 8.7 150.6 9 150.4 9.2C150 9.7 149.4 10.1 149.2 10.7C148 13.8 146.9 17 145.8 20.2C144.7 22.4 143.5 24.1 140.8 24.5Z" fill="black"></path><path d="M182.6 13.9C182.4 18.8 178.1 21.5 174 19.5C170.9 18 170.1 12.6 172.6 9.7C174.9 7 179.7 7.3 181.4 10.3C182.1 11.4 182.2 12.7 182.6 13.9ZM174.2 13.9C174.3 14.9 174.4 16 174.7 17.1C174.9 18 175.6 18.6 176.6 18.7C177.6 18.8 178.3 18.3 178.7 17.4C179.5 15.2 179.5 13 178.7 10.8C178.4 9.9 177.6 9.4 176.6 9.4C175.5 9.4 174.8 10 174.6 11C174.5 11.9 174.4 12.9 174.2 13.9Z" fill="black"></path><path d="M209.2 14.4C206.7 14.4 204.4 14.4 202.2 14.4C202 18 204.1 19.1 208.4 17.5C209.2 18.1 208.9 18.5 208.2 19C206.2 20.3 203.2 20.5 201.4 19.3C199 17.7 198.7 15.2 199.1 12.7C199.5 9.6 201.5 8 204.4 8C206.9 8 208.5 9.3 208.9 11.8C209.1 12.5 209.1 13.3 209.2 14.4ZM202.1 12.8C203.5 12.8 204.8 12.8 206.1 12.8C206.1 11.5 206.3 10.2 205.1 9.5C204.6 9.2 203.7 9.2 203.2 9.5C202.1 10.3 202.1 11.6 202.1 12.8Z" fill="black"></path><path d="M233.1 14.4C230.8 14.4 228.5 14.4 226.2 14.4C226 18 228 19 232.5 17.5C232.7 17.7 232.8 18 233 18.2C232.9 18.3 232.9 18.5 232.8 18.5C231 20 228.9 20.4 226.6 19.8C226.4 19.7 226.2 19.7 226.1 19.6C223.5 18.4 222.3 14.6 223.6 11.3C224.6 8.6 227.2 7.4 230.1 8.2C232.4 8.8 233.7 11.3 233.1 14.4ZM230.3 12.9C230.3 11.7 230.4 10.4 229.3 9.6C228.8 9.3 227.9 9.3 227.4 9.6C226.2 10.3 226.3 11.6 226.2 12.9C227.6 12.9 228.9 12.9 230.3 12.9Z" fill="black"></path><path d="M290 19.7C287.7 19.7 285.8 19.7 283.5 19.7C283.9 19.2 284.1 18.8 284.3 18.7C285.1 18.5 285.3 18 285.3 17.2C285.3 13.5 285.3 9.8 285.3 6.2C285.3 5.4 285.2 4.6 284.1 4.5C283.9 4.5 283.7 4.2 283.7 4C283.7 3.8 283.9 3.5 284.1 3.5C285.1 3.3 286.2 3.1 287.2 3C287.4 3 287.9 3.3 288 3.6C288.2 4.3 288.2 5 288.2 5.7C288.2 9.5 288.2 13.4 288.2 17.2C288.2 18 288.3 18.7 289.3 18.8C289.5 18.8 289.7 19.2 290 19.7Z" fill="black"></path><path d="M195.5 2.89999C195.6 3.79999 195.7 4.59999 195.7 5.29999C195.7 9.09999 195.7 12.9 195.7 16.7C195.7 17.6 195.5 18.6 196.9 18.8C197.1 18.8 197.1 19.3 197.3 19.7C195.2 19.7 193.3 19.7 191.1 19.7C191.4 19.3 191.6 18.8 191.9 18.7C192.7 18.5 192.8 18 192.8 17.3C192.8 13.5 192.8 9.79999 192.8 5.99999C192.8 5.19999 192.6 4.59999 191.7 4.49999C191.5 4.49999 191.3 4.19999 191.2 3.89999C191.2 3.79999 191.4 3.49999 191.6 3.39999C192.9 3.29999 194.1 3.09999 195.5 2.89999Z" fill="black"></path><path d="M190.3 19.7C188 19.7 186.1 19.7 183.8 19.7C184.2 19.2 184.3 18.8 184.6 18.7C185.4 18.5 185.6 18 185.6 17.2C185.6 13.5 185.6 9.79999 185.6 6.19999C185.6 5.39999 185.5 4.59999 184.4 4.49999C184.2 4.49999 183.9 4.09999 184 3.99999C184.1 3.79999 184.3 3.49999 184.5 3.39999C185.4 3.19999 186.3 3.09999 187.1 2.89999C187.9 2.69999 188.3 3.09999 188.3 3.79999C188.3 4.99999 188.4 6.29999 188.4 7.49999C188.4 10.6 188.4 13.8 188.4 16.9C188.4 17.7 188.5 18.4 189.5 18.6C189.8 18.8 190 19.2 190.3 19.7Z" fill="black"></path><path d="M132 10C131.5 9.9 131.1 9.9 130.7 9.9C130.4 9.2 130.5 8.7 131.3 8.6C132 8.5 132.2 8 132.3 7.4C132.8 5.2 133 5.1 135 5C134.9 6 134.9 7.1 134.8 8.2C135.7 8.2 136.5 8.2 137.8 8.2C137.4 9 137.2 9.7 136.8 9.9C136.3 10.1 135.6 10 134.9 10C134.9 12.6 134.9 15.1 135 17.6C135 18 135.7 18.4 136.2 18.6C136.5 18.7 137 18.5 137.5 18.5C138.1 19.2 137.9 19.7 137 19.9C136.4 20 135.7 20.2 135.1 20.3C133.1 20.3 132.1 19.3 132.1 17.3C132 14.7 132 12.4 132 10Z" fill="black"></path><path d="M98.9 19.7C96.9 19.7 94.9 19.7 92.5 19.7C92.9 19.2 93.1 18.8 93.4 18.8C94.1 18.6 94.4 18.1 94.4 17.4C94.4 15.4 94.4 13.4 94.4 11.4C94.4 10.7 94.2 9.99999 93.3 9.89999C93.1 9.89999 92.9 9.49999 92.9 9.39999C92.9 9.19999 93.2 8.89999 93.3 8.89999C94.1 8.39999 95 8.2 95.9 8C96.1 8 96.6 8.3 96.7 8.5C96.9 9 97 9.5 97.1 10.2C98.1 8.9 99 7.6 101 8C100.8 9 100.6 9.9 100.5 10.8C100.4 10.9 100.3 10.9 100.2 10.9C97.5 10.8 97.1 11.2 97.1 13.9C97.1 15 97.1 16.1 97.1 17.2C97.1 18.1 97.3 18.7 98.4 18.8C98.7 18.8 98.9 19.2 99.1 19.4C99 19.5 98.9 19.6 98.9 19.7Z" fill="black"></path><path d="M213.9 30.1C215.7 30.1 217.5 30 219.3 30.1C220.3 30.2 221 30.9 221.2 31.9C221.4 33.1 220.9 33.9 219.8 34.4C221.4 35.2 221.9 36 221.7 37.3C221.5 38.5 220.6 39.3 219 39.4C217.5 39.5 216.1 39.4 214.6 39.4C214.4 39.4 214.2 39.3 213.7 39.1C215.1 38.7 215 37.8 215 36.8C215 35.5 215 34.2 215 32.9C214.9 31.9 215.2 30.8 213.9 30.1ZM216.8 38.9C217.8 38.5 218.9 38.5 219.4 37.9C219.8 37.5 219.8 36.1 219.4 35.7C218.9 35.1 217.8 35.1 216.9 34.8C216.8 36.2 216.8 37.3 216.8 38.9ZM216.8 30.6C216.8 32 216.8 33 216.8 34.4C217.7 34.1 218.6 34 219 33.4C219.3 33 219.3 31.8 218.9 31.4C218.6 31 217.7 30.9 216.8 30.6Z" fill="black"></path><path d="M108.2 19.7C105.9 19.7 104 19.7 101.7 19.7C102.1 19.2 102.2 18.8 102.5 18.8C103.2 18.6 103.5 18.2 103.5 17.5C103.5 15.4 103.5 13.4 103.5 11.3C103.5 10.6 103.3 10 102.5 9.9C102.3 9.9 102 9.5 102 9.4C102.1 9.2 102.3 8.9 102.5 8.8C103.7 8.5 104.9 8.3 106.3 8C106.3 8.5 106.3 8.8 106.3 9.2C106.3 11.9 106.3 14.5 106.3 17.2C106.3 18 106.4 18.7 107.4 18.9C107.7 18.8 107.9 19.2 108.2 19.7Z" fill="black"></path><path d="M127.9 7.89999C127.9 9.49999 127.9 10.9 127.9 12.3C127.9 14 127.9 15.6 127.9 17.3C127.9 18 128 18.6 128.9 18.8C129.2 18.8 129.3 19.3 129.7 19.7C127.4 19.7 125.5 19.7 123.2 19.7C123.6 19.2 123.8 18.8 124 18.7C124.7 18.5 125 18 125 17.3C125 15.3 125 13.4 125 11.4C125 10.6 124.8 9.89999 123.9 9.79999C123.7 9.79999 123.5 9.39999 123.5 9.29999C123.5 9.09999 123.8 8.89999 124 8.79999C125.2 8.39999 126.5 8.19999 127.9 7.89999Z" fill="black"></path><path d="M297.3 19.7C295.1 19.7 293.2 19.7 291 19.7C291.4 19.2 291.6 19 291.8 18.7C292.1 18.3 292.7 17.9 292.7 17.5C292.8 15.4 292.7 13.3 292.7 11.2C292.7 10.2 292.2 9.79999 290.9 9.69999C291.3 9.19999 291.5 8.79999 291.8 8.69999C293 8.39999 294.2 8.19999 295.6 7.89999C295.6 8.69999 295.6 9.39999 295.6 9.99999C295.6 12.4 295.6 14.8 295.6 17.2C295.6 17.9 295.7 18.5 296.5 18.7C296.7 18.8 296.9 19.2 297.3 19.7Z" fill="black"></path><path d="M267 39.3C266.1 39.3 265 39.3 263.7 39.3C265.3 37.7 264.5 35.9 264.5 34.2C264.5 34 263.8 33.6 263.5 33.7C263 33.9 262.3 34.3 262.3 34.6C262.1 35.7 262.2 36.9 262.3 38.1C262.3 38.4 262.8 38.7 263.2 39.2C262 39.2 260.8 39.2 260 39.2C260.2 38.4 260.4 37.6 260.5 36.8C260.6 35.2 260.6 33.6 260.5 32C260.5 31.3 260.1 30.6 259.9 29.7C260.4 29.6 261.1 29.5 261.9 29.4C262 29.4 262.3 29.9 262.3 30.2C262.4 31.1 262.3 32 262.3 33.1C262.7 32.9 262.9 32.8 263.1 32.6C264.6 31.7 266.8 32.3 266.5 34.6C266.4 35.4 266.4 36.3 266.5 37.1C266.5 37.9 266.8 38.5 267 39.3Z" fill="black"></path><path d="M197.7 32.6C197.7 31.7 198.1 30.6 196.7 30.1C196.7 30 196.8 29.9 196.8 29.8C197.7 29.7 198.5 29.5 199.5 29.3C199.5 31.9 199.5 34.3 199.5 36.7C199.5 37.5 199.2 38.4 200.5 38.6C199.3 39.7 198.2 39.7 197.7 38.7C195.3 40.3 193.2 39.3 193 36.3C192.9 34.1 193.8 32.5 195.5 32.3C196.3 32.4 197 32.6 197.7 32.6ZM197.7 35.9C197.7 35.5 197.7 35.1 197.7 34.7C197.8 33.9 197.4 33.5 196.7 33.4C196 33.3 195.3 33.5 195.2 34.2C195.1 35.3 195.1 36.4 195.2 37.5C195.3 37.8 196.1 38.3 196.5 38.2C196.9 38.1 197.4 37.5 197.6 37.1C197.9 36.9 197.7 36.4 197.7 35.9Z" fill="black"></path><path d="M312.1 39.3C311.2 39.3 310.1 39.3 308.9 39.3C309.9 38.7 309.8 37.8 309.8 36.9C309.8 36.2 309.8 35.6 309.8 34.9C309.8 34.2 309.6 33.6 308.8 33.7C308.1 33.8 307.4 33.9 307.3 34.9C307.3 35.9 307.2 36.8 307.3 37.8C307.4 38.3 307.8 38.7 308.1 39.3C307 39.3 305.8 39.3 304.7 39.3C305.8 38.7 305.6 37.7 305.6 36.8C305.6 35.5 305.6 34.2 305.6 33C305.6 31.9 305.9 30.8 304.3 30C305.4 29.8 306.2 29.6 307.2 29.5C307.3 30.8 307.3 32 307.4 33.4C307.7 33.2 307.9 33.1 308.2 32.9C309.7 32 311.8 32.6 311.6 34.9C311.5 35.7 311.5 36.5 311.6 37.2C311.6 37.8 311.8 38.5 312.1 39.3Z" fill="black"></path><path d="M255 39.3C254 39.3 252.8 39.3 251.6 39.3C251.6 39.2 251.6 39.2 251.5 39.1C251.8 38.9 252.1 38.7 252.5 38.4C252.3 37.9 252.2 37.4 252 36.8C251.1 36.8 250.1 36.8 249.1 36.8C249 37.6 247.8 38.5 249.8 39.1C249.7 39.2 249.6 39.2 249.5 39.3C248.5 39.3 247.6 39.3 246.7 39.3C247.1 38.4 247.6 37.5 248 36.6C248.7 34.7 249.3 32.8 249.9 30.9C250.1 30.4 250.3 30.1 250.9 30.1C251.6 30.1 251.8 30.4 252 31C252.5 32.6 253 34.2 253.6 35.7C254 36.8 254.5 38 255 39.3ZM249.4 35.7C250.2 35.7 250.9 35.7 251.7 35.7C251.3 34.4 251 33.3 250.5 32C250.1 33.3 249.7 34.5 249.4 35.7Z" fill="black"></path><path d="M187.2 49.6C192.1 49.2 194.2 50.6 194.1 54.3C194 58 192.3 59.5 187.2 58.9C187.2 55.9 187.2 52.8 187.2 49.6ZM188.4 58C189.9 58.1 191.3 58.1 192.1 56.6C192.9 55 193 53.4 192 51.8C191.2 50.5 189.8 50.5 188.4 50.7C188.4 53.2 188.4 55.6 188.4 58Z" fill="black"></path><path d="M173.4 39.3C174.8 38 174.8 34.3 173.5 33.3C174.6 32.3 175.7 32.3 176.2 33.4C176.6 33.2 176.9 32.9 177.3 32.7C179 31.9 180.4 32.8 180.4 34.7C180.4 35.6 180.3 36.4 180.4 37.3C180.5 38 180.7 38.6 180.9 39.4C180 39.4 178.9 39.4 178 39.4C178.2 38.6 178.5 38 178.6 37.3C178.7 36.5 178.7 35.7 178.6 34.9C178.5 34.5 177.9 33.8 177.7 33.9C177.2 34 176.3 34.4 176.3 34.9C176.1 36 176.2 37.1 176.3 38.3C176.3 38.7 176.7 39 177.1 39.5C175.9 39.3 174.7 39.3 173.4 39.3Z" fill="black"></path><path d="M139.6 39.3C138.3 39.3 137.2 39.3 136.3 39.3C136.5 38.5 136.8 37.8 136.9 37.1C137 36.3 137 35.5 136.9 34.8C136.8 34.4 136.2 33.7 136 33.8C135.4 33.9 134.6 34.3 134.5 34.7C134.3 35.8 134.4 36.9 134.5 38.1C134.5 38.5 135 38.8 135.4 39.3C134.2 39.3 133 39.3 131.5 39.3C133.1 38.5 132.9 37.3 132.8 36.2C132.7 35.2 133.4 33.9 131.8 33.3C131.8 33.2 131.8 33.1 131.8 33C132.5 32.8 133.2 32.6 134 32.3C134.2 32.7 134.3 32.9 134.5 33.3C134.6 33.3 134.7 33.2 134.8 33.2C135.4 32.9 136 32.5 136.6 32.4C137.8 32.2 138.6 33 138.7 34.2C138.7 35.1 138.7 36 138.7 36.9C138.6 38.3 138.6 38.3 139.6 39.3Z" fill="black"></path><path d="M89 32.1C88 32.4 87.5 32.3 87.2 31.5C87 31.1 86.3 30.7 86 30.7C85.4 30.8 84.6 31.2 84.3 31.7C83.4 33.6 83.4 35.7 84.3 37.7C84.5 38.2 85.4 38.5 86 38.6C86.7 38.8 87.2 38.4 87.6 37.7C87.8 37.4 88.3 37.2 88.8 36.9C89.1 38.9 88.9 39.2 87.2 39.4C84.8 39.7 83.1 39.1 82.3 37.5C81.3 35.5 81.7 32.3 83 30.9C84.2 29.7 87 29.2 88.4 30.2C88.8 30.6 88.8 31.4 89 32.1Z" fill="black"></path><path d="M284.2 32.5C283.8 32.2 283.4 31.9 283 31.6C282.6 31.3 282.1 30.7 281.6 30.7C281 30.7 280.2 31.1 280 31.6C279.1 33.6 279.1 35.7 280 37.7C280.2 38.2 281.2 38.6 281.8 38.6C282.4 38.6 283 37.9 283.6 37.6C283.5 37.5 283.5 37.4 283.4 37.3C283.7 37.3 284.1 37.3 284.4 37.3C284.7 39 284.6 39.3 282.9 39.6C280.5 40 278.8 39.3 278 37.7C277 35.7 277.3 32.5 278.8 31C280 29.8 282.7 29.4 284.1 30.4C284.5 30.7 284.5 31.6 284.7 32.2C284.6 32.2 284.4 32.3 284.2 32.5Z" fill="black"></path><path d="M151.3 39.2C152.6 38.8 152.5 37.8 152.5 36.9C152.5 34.9 152.5 33 152.5 31C151.5 30.7 150.9 31 150.6 31.9C150.5 32.1 150.1 32.3 149.6 32.6C149.6 31.5 149.7 30.8 149.7 30.1C150.1 30.1 150.4 30 150.7 30C152.7 30 154.8 30 157 30C157 30.8 157.1 31.5 157.1 32.3C157 32.4 156.9 32.4 156.8 32.5C156.5 32.3 156.1 32.1 156 31.9C155.7 31 155.2 30.9 154.3 31C154.3 33.4 154.3 35.8 154.3 38.1C154.3 38.4 154.9 38.8 155.4 39.2C154.1 39.7 152.7 39.4 151.3 39.2Z" fill="black"></path><path d="M297.2 35.3C297.2 34.9 297.3 34.5 297.2 34.2C297.1 33.9 296.7 33.3 296.5 33.3C296.1 33.3 295.6 33.6 295.2 33.8C294.8 34 294.4 34.3 293.9 34.6C293.4 33.3 293.9 32.7 294.8 32.6C295.4 32.5 296.1 32.3 296.7 32.4C298.2 32.5 298.9 33.3 298.9 34.8C298.9 35.5 298.9 36.1 298.9 36.8C298.9 37.7 298.7 38.6 299.9 39C299.1 39.9 298.3 39.8 297.3 38.9C296.3 39.8 295.1 40.1 294.1 39.2C293.6 38.8 293.2 37.7 293.4 37.1C293.8 35.2 295.6 35.5 297.2 35.3ZM297.4 36.4C297.2 36.3 297.1 36.1 296.9 36C296.3 36.3 295.6 36.5 295.2 37C295 37.2 295.1 38 295.3 38.2C295.5 38.4 296.4 38.5 296.5 38.3C296.9 37.7 297.1 37 297.4 36.4Z" fill="black"></path><path d="M108.7 49.6C109.1 49.6 109.4 49.6 109.9 49.6C109.9 51.4 109.9 53.2 109.9 55C109.9 55.5 110 56.1 110.1 56.6C110.3 57.6 111 58.2 112.1 58.2C113.2 58.2 114 57.6 114.1 56.5C114.2 55.4 114.2 54.2 114.3 53C114.3 51.9 114.3 50.8 114.3 49.7C114.8 49.7 115.1 49.7 115.4 49.7C115.4 52 115.5 54.2 115.4 56.5C115.2 58.5 114 59.4 112 59.4C110.1 59.4 108.9 58.4 108.8 56.5C108.6 54.1 108.7 51.9 108.7 49.6Z" fill="black"></path><path d="M203.7 58.8C203.7 55.6 203.7 52.3 203.7 48.9C204.1 48.9 204.4 48.9 204.9 48.8C204.9 50.1 204.9 51.3 204.9 52.6C205.4 52.4 205.7 52.2 206 52C207 51.6 207.9 51.7 208.7 52.4C210.6 53.9 210 58.1 207.8 59C207.4 59.2 206.9 59.2 206.4 59.2C205.7 59.1 204.8 58.9 203.7 58.8ZM208.8 55.5C208.7 55.5 208.7 55.5 208.6 55.4C208.6 55.3 208.6 55.2 208.6 55.1C208.5 53.7 207.9 53 206.8 53C205.6 53 205 53.8 205 55.2C205 55.7 205 56.1 205 56.6C204.9 57.4 205.2 58 205.9 58.1C206.6 58.1 207.4 58 207.9 57.6C208.4 57 208.5 56.2 208.8 55.5Z" fill="black"></path><path d="M222.9 34.4C222.5 33.3 223 32.8 223.9 32.6C224.5 32.5 225.1 32.3 225.7 32.3C227.3 32.3 228.1 33.2 228.1 34.8C228.1 35.5 228 36.3 228.1 37C228.2 37.7 228.5 38.3 228.7 39.2C228.2 39.8 227.4 39.7 226.3 38.9C225 39.8 223.8 40 223 39.2C222.5 38.7 222.3 37.7 222.4 37C222.5 35.9 223.5 35.5 226.2 35.3C226.3 34.6 226.5 33.8 225.7 33.4C225.3 33.2 224.5 33.5 224.3 33.9C223.9 34.6 223.4 34.4 222.9 34.4ZM226.4 35.9C225.6 36.3 224.9 36.5 224.4 36.9C224.2 37.1 224.3 37.9 224.5 38.2C224.6 38.4 225.3 38.4 225.6 38.3C226.7 37.9 226.3 37.1 226.4 35.9Z" fill="black"></path><path d="M271.8 35.2C271.7 34.7 271.7 34.2 271.5 33.7C271.2 33 270.2 33 269.7 33.7C269.1 34.4 269.1 34.4 268.2 34.3C267.9 33.4 268.2 32.8 269.2 32.6C269.9 32.5 270.6 32.3 271.3 32.3C272.8 32.4 273.5 33.1 273.5 34.7C273.5 35.4 273.5 36.1 273.5 36.8C273.5 37.6 273.4 38.5 274.5 38.8C273.7 39.7 272.9 39.7 272.1 39C271.1 39.2 270.3 39.5 269.6 39.5C268.6 39.5 268 38.8 267.9 37.8C267.8 36.8 268.2 35.9 269.3 35.6C269.9 35.4 270.7 35.4 271.8 35.2ZM271.9 36.3C270.8 36.2 270 36.1 269.7 37C269.6 37.4 269.7 38 269.9 38.3C270 38.5 270.9 38.5 271 38.3C271.4 37.7 271.5 37 271.9 36.3Z" fill="black"></path><path d="M105 35.2C104.9 34.6 104.9 34 104.6 33.6C104.3 33 103.4 33.1 102.8 33.7C102.5 34.1 102 34.3 101.5 34.6C101 33.3 101.4 32.8 102.3 32.6C102.8 32.5 103.4 32.3 103.9 32.3C105.7 32.2 106.6 33.1 106.6 34.9C106.6 35.7 106.5 36.6 106.6 37.4C106.6 37.8 106.9 38.1 107.1 38.5C107.2 38.7 107.4 38.8 107.5 38.9C107.3 39 107.1 39.3 106.9 39.3C106.2 39.3 105.5 39.1 104.6 39C103.9 39.6 102.8 39.8 101.7 39.1C100.8 38.6 100.9 37.7 101 36.8C101.3 35.9 102 35.6 105 35.2ZM104.8 36.3C103.4 36.2 102.7 36.5 102.7 37.4C102.7 37.8 103.2 38.4 103.6 38.5C104.5 38.6 104.8 38 104.8 36.3Z" fill="black"></path><path d="M140.6 34.7C140.1 33.3 140.6 32.8 141.5 32.6C142.1 32.5 142.7 32.3 143.3 32.3C144.9 32.3 145.6 33.1 145.7 34.7C145.7 35.5 145.6 36.4 145.6 37.2C145.6 37.7 146.1 38.1 146.2 38.5C146.3 38.7 146.1 39.3 146 39.3C145.3 39.3 144.6 39.2 143.5 39.1C142.8 39.7 141.8 39.9 140.6 39.2C139.8 38.7 139.6 37.8 139.9 37C140.5 35 142.3 35.4 143.9 35.2C143.8 34.7 143.8 34.2 143.7 33.7C143.4 32.9 142.4 33 141.8 33.7C141.5 34.1 141 34.3 140.6 34.7ZM144.1 36.4C144 36.3 143.8 36.1 143.7 36C143.1 36.3 142.4 36.5 142 36.9C141.8 37.1 141.9 37.9 142.1 38.2C142.3 38.4 143.1 38.5 143.3 38.3C143.6 37.7 143.8 37 144.1 36.4Z" fill="black"></path><path d="M96.3 59C95.9 59 95.5 59 95 59C95 57.5 95 56.1 95 54.7C95 53.8 94.9 53 93.7 53C92.7 53 91.9 53.8 91.9 54.8C91.9 56.2 91.9 57.6 91.9 59C91.4 59 91.1 59 90.6 59C90.6 55.6 90.6 52.3 90.6 48.8C91 48.8 91.4 48.8 91.8 48.7C91.8 50 91.8 51.2 91.8 52.7C92.2 52.5 92.5 52.3 92.8 52.2C94.5 51.3 96 52 96.2 53.9C96.4 55.6 96.3 57.3 96.3 59Z" fill="black"></path><path d="M166.3 36C166.3 33.8 167.6 32.4 169.6 32.3C171.6 32.3 172.9 33.7 172.9 35.9C172.9 38.1 171.6 39.5 169.6 39.5C167.5 39.6 166.3 38.3 166.3 36ZM171.1 35.9C171 35.4 171.1 34.7 170.8 34.2C170.6 33.8 170 33.2 169.6 33.3C169.2 33.3 168.5 33.9 168.4 34.3C168.2 35.4 168.2 36.5 168.4 37.6C168.5 38 169.2 38.6 169.6 38.6C170 38.6 170.5 38 170.8 37.6C171 37.2 171 36.5 171.1 35.9Z" fill="black"></path><path d="M96.3 35.9C96.3 38.1 95.1 39.5 93 39.6C90.9 39.6 89.6 38.3 89.6 36.1C89.6 33.9 91 32.4 93 32.4C95 32.4 96.3 33.7 96.3 35.9ZM94.4 36C94.3 35.4 94.3 34.7 94 34.1C93.8 33.7 93.3 33.3 92.9 33.3C92.5 33.3 91.8 33.7 91.8 34.1C91.7 35.4 91.7 36.7 91.8 38C91.8 38.3 92.5 38.8 92.9 38.8C93.3 38.8 93.8 38.4 94 38C94.3 37.3 94.3 36.6 94.4 36Z" fill="black"></path><path d="M188.4 35.9C188.4 38.2 187.2 39.6 185 39.6C183 39.6 181.7 38.2 181.7 36.1C181.7 33.9 183.1 32.4 185.1 32.4C187.2 32.4 188.4 33.7 188.4 35.9ZM183.6 36C183.7 36.6 183.6 37.3 183.9 37.7C184.1 38.1 184.7 38.6 185.1 38.7C185.5 38.7 186.2 38.2 186.2 37.8C186.3 36.6 186.3 35.4 186.2 34.2C186.2 33.9 185.4 33.3 185 33.3C184.6 33.3 184 33.8 183.8 34.2C183.7 34.7 183.7 35.4 183.6 36Z" fill="black"></path><path d="M239.4 36.2C239 37.9 240.2 38.8 241.9 38.4C242.3 38.3 242.7 38.2 243.2 38.3C242.4 39.5 240.7 40 239.3 39.4C238.1 38.9 237.3 37.5 237.4 35.9C237.5 34.1 238.3 32.9 239.7 32.5C242.1 31.8 243.8 33.5 243.4 36.2C242.1 36.2 240.8 36.2 239.4 36.2ZM241.7 35.3C241.6 33.8 241.4 33.2 240.6 33.2C239.8 33.2 239.4 33.9 239.5 35.3C240.2 35.3 240.9 35.3 241.7 35.3Z" fill="black"></path><path d="M207 36.2C205.6 36.2 204.3 36.2 203 36.2C202.9 37.9 203.6 38.7 205.2 38.4C205.5 38.3 205.9 38.2 206.2 38.1C206.4 38.1 206.6 38.2 206.8 38.3C206.7 38.5 206.7 38.7 206.5 38.9C205.5 39.8 203.2 39.8 202.2 39C200.7 37.7 200.6 34.5 202.1 33.1C203 32.3 204.5 32.1 205.6 32.7C206.9 33.4 207.1 34.7 207 36.2ZM205.1 35.3C205.2 33.9 204.9 33.3 204.2 33.3C203.4 33.3 203 33.9 203 35.3C203.7 35.3 204.4 35.3 205.1 35.3Z" fill="black"></path><path d="M128.2 38.4C128 38.6 127.8 39 127.5 39.1C126.4 39.7 125.3 39.8 124.1 39.4C122.7 38.9 121.9 37.1 122.3 35.2C122.6 33.5 123.7 32.5 125.3 32.4C127.4 32.3 128.4 33.7 128.3 36.2C127 36.2 125.6 36.2 124.3 36.2C124.2 38.3 124.7 38.6 128.2 38.4ZM126.6 35.3C126.4 34.4 126.7 33.2 125.4 33.3C124.2 33.3 124.3 34.4 124.2 35.3C125 35.3 125.7 35.3 126.6 35.3Z" fill="black"></path><path d="M178.1 55.6C178.1 57.8 176.8 59.3 174.8 59.3C172.9 59.3 171.5 57.8 171.5 55.6C171.5 53.4 172.8 51.9 174.8 51.9C176.8 51.8 178.1 53.4 178.1 55.6ZM176.9 55.7C176.7 55.1 176.8 54.4 176.4 54.1C176 53.6 175.4 53.1 174.8 53.1C174.3 53.1 173.6 53.6 173.3 54C172.6 55 172.7 56.2 173.3 57.3C174 58.5 175.6 58.6 176.3 57.4C176.6 56.8 176.7 56.2 176.9 55.7Z" fill="black"></path><path d="M116.6 34.4C116.2 34.2 115.9 34 115.5 33.8C115.1 33.6 114.6 33.3 114.2 33.3C113.9 33.3 113.5 33.7 113.5 34C113.5 34.3 113.8 34.7 114.1 34.8C114.6 35 115.2 35.1 115.8 35.3C116.8 35.6 117.4 36.3 117.3 37.4C117.3 38.5 116.6 39.3 115.4 39.5C114.8 39.6 114.1 39.6 113.4 39.5C112 39.3 111.8 39.2 112.1 37.2C112.6 37.6 112.9 37.9 113.3 38.1C113.8 38.4 114.4 38.6 114.9 38.6C115.1 38.6 115.6 38.1 115.6 37.8C115.6 37.5 115.3 37.1 115 36.9C114.5 36.7 113.9 36.6 113.3 36.4C112.4 36.1 111.9 35.5 111.9 34.5C111.9 33.5 112.3 32.7 113.2 32.6C114.2 32.4 115.2 32.5 116.1 32.6C116.4 32.7 116.6 33.5 116.8 33.9C116.9 34.2 116.7 34.3 116.6 34.4Z" fill="black"></path><path d="M123.6 59C123.1 59 122.8 59 122.3 59C122.3 57.6 122.3 56.3 122.3 54.9C122.3 54 122.3 53 121 53C119.9 52.9 119.2 53.8 119.2 55C119.2 56.3 119.2 57.6 119.2 59C118.8 59 118.4 59 118 59.1C118 56.8 118 54.5 118 52C118.5 52.2 118.9 52.4 119.4 52.7C119.3 52.7 119.5 52.6 119.7 52.5C121.7 51.2 123.3 52 123.6 54.3C123.6 54.7 123.6 55.1 123.6 55.5C123.6 56.6 123.6 57.7 123.6 59Z" fill="black"></path><path d="M224.6 59C224.2 59 223.9 59 223.4 59C223.4 57.6 223.4 56.2 223.4 54.8C223.4 53.9 223.4 53 222.1 53C221 53 220.3 53.8 220.2 54.9C220.2 56.3 220.2 57.6 220.2 59C219.8 59 219.4 59 219 59.1C219 56.8 219 54.5 219 51.9C219.5 52.2 219.9 52.3 220.4 52.6C220.5 52.5 220.8 52.3 221.1 52.1C222.7 51.2 224.3 51.9 224.5 53.7C224.7 55.5 224.6 57.2 224.6 59Z" fill="black"></path><path d="M103.9 55.9C102.3 55.9 100.8 55.9 99.3 55.9C99.5 57.9 100.7 58.6 102.6 58C103.3 57.8 103.3 57.8 103.6 58.5C101.8 59.7 99.7 59.4 98.6 57.8C97.4 56.1 97.9 53.2 99.7 52.2C100.7 51.6 101.8 51.6 102.8 52.2C103.9 53.1 104 54.4 103.9 55.9ZM102.8 54.9C102.6 53.5 102.1 52.9 101.2 52.9C100.2 52.9 99.5 53.7 99.4 54.9C100.5 54.9 101.6 54.9 102.8 54.9Z" fill="black"></path><path d="M136.7 55.9C137.1 58.2 138.3 58.7 141 57.7C140.9 58.2 141 58.6 140.8 58.8C139.8 59.6 137.7 59.4 136.7 58.5C135.5 57.5 135.1 55.3 135.9 53.8C136.6 52.4 137.9 51.6 139.4 51.9C140.8 52.2 142 54.1 141.5 55.4C141.4 55.6 141 55.8 140.7 55.8C139.4 55.9 138.1 55.9 136.7 55.9ZM140.2 54.9C140.2 53.6 139.7 53 138.8 52.9C137.8 52.8 137.1 53.5 136.8 54.9C137.9 54.9 139.1 54.9 140.2 54.9Z" fill="black"></path><path d="M161.7 61.6C162 61.4 162.3 61.1 162.6 61C163.8 60.7 164.4 59.6 164 58.5C163.2 56.4 162.3 54.3 161.5 52.2C162.3 51.9 162.8 52 163.1 52.9C163.6 54.4 164.2 55.9 164.9 57.7C165.5 55.9 166 54.4 166.4 52.9C166.6 52.1 167 51.9 167.9 52.2C167.6 53.2 167.3 54.1 166.9 55.1C166.3 56.8 165.7 58.5 165.1 60.2C164.4 61.8 163.5 62.2 161.7 61.6Z" fill="black"></path><path d="M201.4 59.3C200.8 58.9 200.5 58.7 200 58.4C199.9 58.5 199.6 58.7 199.3 58.9C197.7 59.8 196.1 59 195.9 57.2C195.8 55.8 195.8 54.3 195.8 52.9C195.8 52.6 195.8 52.4 195.9 52.1C196.3 52.1 196.6 52.1 197.1 52.1C197.1 53.6 197 55.1 197.1 56.6C197.1 57.1 197.7 58 198.1 58C198.7 58 199.4 57.5 200 57.1C200.2 57 200.2 56.5 200.2 56.1C200.2 54.8 200.2 53.4 200.2 52C200.7 52 201 52 201.5 51.9C201.4 54.4 201.4 56.6 201.4 59.3Z" fill="black"></path><path d="M96.9 29.8C97.7 29.7 98.5 29.5 99.4 29.4C99.5 30 99.6 30.5 99.6 31C99.6 33.1 99.6 35.2 99.6 37.3C99.6 38 99.4 38.9 100.8 38.9C100.7 39 100.6 39.1 100.5 39.2C99.3 39.2 98.1 39.2 97 39.2C98.1 38.6 97.9 37.7 97.9 36.8C97.9 35.3 97.9 33.9 97.9 32.4C97.9 31.5 98.1 30.5 96.8 30.1C96.8 30 96.8 29.9 96.9 29.8Z" fill="black"></path><path d="M86.3 50.6C86.3 53.5 86.3 56.2 86.3 59C85.8 59 85.5 59 85 59C85 56.3 85 53.5 85 50.7C84 50.7 83.2 50.7 82.3 50.7C81.9 49.8 82.1 49.5 82.9 49.5C84.7 49.5 86.5 49.5 88.3 49.5C89.1 49.5 89.3 49.8 89 50.6C88.2 50.6 87.3 50.6 86.3 50.6Z" fill="black"></path><path d="M285.3 39.3C286.3 38.7 286.2 37.8 286.2 36.9C286.2 35.4 286.2 33.8 286.2 32.3C286.2 31.4 286.3 30.5 285.1 30.2C285.1 30.1 285.2 30 285.2 29.9C286 29.8 286.8 29.6 287.8 29.4C287.9 30.2 288 30.8 288 31.4C288 33.3 288 35.2 288 37.1C288 37.9 287.9 38.8 288.9 39.4C287.6 39.3 286.4 39.3 285.3 39.3Z" fill="black"></path><path d="M120.3 32.5C120.9 32.6 121.3 32.6 121.7 32.6C121.6 33.4 121.6 33.4 120.3 33.6C120.3 35.1 120.2 36.6 120.4 38C120.4 38.3 121.3 38.5 121.9 38.9C121.7 39.7 120.9 39.5 120.3 39.6C119.4 39.6 118.6 39.2 118.6 38.1C118.5 36.9 118.6 35.8 118.5 34.6C118.5 34.1 118.2 33.6 118 33C119.3 32.9 118.3 30.4 120.3 30.6C120.3 31.2 120.3 31.8 120.3 32.5Z" fill="black"></path><path d="M236.8 39.3C235.7 39.3 234.5 39.3 233.4 39.3C234.6 38.5 234.3 37.4 234.3 36.4C234.3 35 234.3 33.6 234.3 32.2C234.3 30.8 234.3 30.8 233 29.9C234 29.7 234.7 29.6 235.5 29.5C235.6 29.5 235.9 30.1 235.9 30.5C235.9 32.6 235.9 34.7 235.9 36.8C235.9 37.7 235.6 38.7 237.1 39C237 39.1 236.9 39.2 236.8 39.3Z" fill="black"></path><path d="M302.7 30.3C302.7 31.3 302.7 31.8 302.7 32.4C303.2 32.5 303.7 32.5 304.1 32.6C304.3 33.8 303.3 33.3 302.7 33.6C302.7 35 302.6 36.5 302.8 37.9C302.8 38.3 303.7 38.5 304.4 38.9C304.2 39.7 303.3 39.5 302.7 39.6C301.8 39.6 301.1 39.2 301 38.2C300.9 37.1 301 36 300.9 34.9C300.9 34.3 300.6 33.7 300.4 33C300.7 32.5 301 31.8 301.4 31.2C301.7 30.9 302.1 30.7 302.7 30.3Z" fill="black"></path><path d="M157 33.2C158.6 32.2 159.3 32.2 159.7 33.4C160.4 33 161.1 32.6 161.7 32.2C161.8 32.3 161.9 32.4 162 32.5C161.9 33 161.8 33.6 161.7 34.1C161.6 34 161.5 33.9 161.4 33.8C160.8 34.2 159.9 34.6 159.8 35.1C159.3 37 159.7 38.5 160.8 39C160.2 39.5 158.1 39.6 157.1 39.1C158.3 38 158.3 34.3 157 33.2Z" fill="black"></path><path d="M181.4 59C180.9 59 180.6 59 180.1 59C180.1 57.4 180.1 55.8 180.1 54.3C180.1 53.8 180.4 53.1 179.4 53C179.3 53 179.3 52.4 179.3 52.2C180.4 52.2 180 51.3 180.1 50.7C180.3 49.1 181.4 48.3 182.8 48.7C183 48.8 183.3 49 183.3 49.2C183.3 49.4 183.1 49.7 182.9 49.8C181.3 50.2 181.3 50.2 181.5 52C181.9 52.1 182.3 52.1 182.8 52.2C182.8 52.5 182.8 52.8 182.8 53.1C182.4 53.1 182 53.2 181.4 53.2C181.4 54.2 181.4 55.1 181.4 56.1C181.4 57 181.4 57.9 181.4 59Z" fill="black"></path><path d="M257.6 32.5C258.2 32.6 258.6 32.6 259.1 32.7C259.3 34 258.3 33.4 257.6 33.8C257.6 35.2 257.6 36.6 257.6 38.1C257.6 38.3 258.2 38.5 258.6 38.7C258.8 38.8 259 38.9 259.2 39.1C259.1 39.3 258.9 39.5 258.8 39.6C257.2 40.4 255.9 39.5 255.8 37.8C255.8 36.9 255.9 35.9 255.8 35C255.8 34.4 255.5 33.9 255.3 33.2C255.6 32.7 255.9 32 256.4 31.3C256.6 31 257.1 30.9 257.6 30.6C257.6 31.2 257.6 31.8 257.6 32.5Z" fill="black"></path><path d="M152.1 53C151.7 53 151.4 53.1 151 53.1C150.6 53.1 150.2 52.8 149.9 52.9C149.5 53 149 53.3 148.9 53.6C148.8 53.9 149.2 54.4 149.5 54.6C150 55 150.7 55.1 151.3 55.4C152.1 55.8 152.5 56.4 152.4 57.2C152.3 58.1 151.8 58.7 151 59C149.6 59.5 148.3 59.2 147.2 58.2C147.4 57.9 147.6 57.7 147.7 57.4C147.8 57.4 148 57.5 148 57.5C148.4 57.7 148.7 57.9 149.1 58C149.8 58.2 150.7 58.3 151 57.4C151.3 56.5 150.5 56.2 149.9 55.9C149.4 55.7 148.8 55.6 148.4 55.2C148 54.8 147.4 54.1 147.5 53.6C147.6 53 148.1 52.2 148.6 51.9C149.7 51.3 150.9 51.6 152 52.3C152.1 52.7 152.1 52.9 152.1 53Z" fill="black"></path><path d="M128.3 52.2C129.2 51.8 129.7 52.1 129.9 53C130.4 54.5 130.9 56.1 131.5 57.9C132.1 56 132.7 54.5 133.2 52.8C133.4 52 133.8 51.8 134.7 52.1C133.9 54.4 133.1 56.7 132.3 58.9C131.1 59.3 130.6 58.8 130.3 57.8C129.7 55.9 129 54 128.3 52.2Z" fill="black"></path><path d="M157.7 53.4C157.3 53 157 52.8 156.7 52.6C157 52.4 157.3 52.3 157.4 52C157.6 51.6 157.8 51.2 157.8 50.8C157.8 50 158.2 49.9 158.9 50.1C158.9 50.7 159 51.3 159 51.9C159.6 51.9 160.1 52 160.8 52C161.1 53.7 159.6 52.7 159 53.3C159 54.5 158.9 55.9 159.1 57.3C159.1 57.6 159.8 57.9 160.2 58.1C160.5 58.3 160.8 58.4 161.3 58.7C159 59.7 157.7 59 157.6 56.9C157.7 55.7 157.7 54.5 157.7 53.4Z" fill="black"></path><path d="M165.5 39.3C164.5 39.3 163.4 39.3 162.1 39.3C163.5 37.9 163.5 34.3 162 33C163 32.8 163.9 32.6 164.8 32.4C165.2 34.7 164.2 37 165.5 39.3Z" fill="black"></path><path d="M107.6 33C108.7 32.8 109.6 32.6 110.4 32.4C111.1 34.6 109.8 37.1 111.2 39.2C110.7 39.6 108.8 39.6 107.9 39.2C109.1 38 109.1 34.2 107.6 33Z" fill="black"></path><path d="M213.4 59.1C212.3 59.3 211.8 59 211.7 57.8C211.7 54.8 211.7 51.8 211.7 48.8C212.1 48.8 212.5 48.8 213 48.7C213 50.9 213 53 213 55C213.1 56.4 213.3 57.8 213.4 59.1Z" fill="black"></path><path d="M232.9 39.3C231.7 39.3 230.6 39.3 229.4 39.3C230.7 37.6 230.7 34.2 229.1 33C230.2 32.8 231 32.6 231.9 32.4C232.5 34.6 231.2 37.1 232.9 39.3Z" fill="black"></path><path d="M192.4 39.3C191.4 39.3 190.2 39.3 188.9 39.3C190.4 38 190.3 34.3 188.8 33C189.8 32.8 190.6 32.6 191.5 32.4C192.1 34.6 190.9 37 192.4 39.3Z" fill="black"></path><path d="M289 33C290.1 32.8 290.9 32.6 291.7 32.4C292.3 34.7 291.1 37.1 292.6 39.3C291.6 39.3 290.4 39.3 289.2 39.3C290.6 37.7 290.6 34.4 289 33Z" fill="black"></path><path d="M144.4 59C143.9 59 143.6 59 143.2 59C143.2 56.7 143.2 54.4 143.2 51.9C143.7 52.2 144.1 52.4 144.5 52.6C145.2 52.3 146 52 147 51.6C146.9 52.3 146.9 52.6 146.9 52.9C146.7 53 146.6 53 146.5 53C145.1 53.1 144.4 53.8 144.4 55.2C144.3 56.4 144.4 57.7 144.4 59Z" fill="black"></path><path d="M295.7 4.9C295.7 5.9 295 6.7 294 6.7C293 6.7 292.1 5.9 292.1 4.9C292.1 3.9 292.9 3.2 293.9 3.2C295 3.1 295.7 3.9 295.7 4.9Z" fill="black"></path><path d="M126.3 6.7C125.3 6.7 124.5 6 124.5 5C124.5 4 125.2 3.2 126.2 3.2C127.3 3.2 128.1 3.9 128.1 5C128.1 5.9 127.3 6.7 126.3 6.7Z" fill="black"></path><path d="M104.8 6.69999C103.8 6.69999 103.1 5.89999 103.1 4.89999C103.1 3.89999 103.8 3.09999 104.8 3.09999C105.9 3.09999 106.6 3.89999 106.6 4.89999C106.6 5.99999 105.8 6.69999 104.8 6.69999Z" fill="black"></path><path d="M155.2 59C154.8 59 154.5 59 154.1 59C154.1 56.7 154.1 54.5 154.1 52.1C154.5 52.1 154.8 52.1 155.2 52C155.2 54.4 155.2 56.7 155.2 59Z" fill="black"></path><path d="M215.5 52.1C215.9 52.1 216.2 52.1 216.6 52.1C216.6 54.4 216.6 56.6 216.6 59C216.3 59 215.9 59 215.5 59.1C215.5 56.7 215.5 54.4 215.5 52.1Z" fill="black"></path><path d="M126.9 59C126.5 59 126.2 59 125.8 59C125.8 56.7 125.8 54.4 125.8 52.1C126.2 52.1 126.5 52.1 126.9 52.1C126.9 54.4 126.9 56.6 126.9 59Z" fill="black"></path><path d="M207.8 41.1C208.3 40.7 208.7 40.3 209.2 39.9C208.9 39.7 208.7 39.5 208.5 39.3C207.9 38.9 207.7 38.3 208.2 37.8C208.5 37.5 209.3 37.4 209.7 37.6C210.4 37.8 210.5 39.1 210.1 40C209.7 40.9 208.8 41.4 207.8 41.1Z" fill="black"></path><path d="M252.8 28.7C251.6 29 250.5 29.3 249.4 29.6C249.3 29.4 249.3 29.3 249.2 29.1C250.1 28.4 251 27.8 252 27C252.2 27.5 252.5 28 252.8 28.7Z" fill="black"></path><path d="M104.9 28.9C105.2 29.4 105.5 29.9 105.9 30.4C104.9 30.8 104.1 31.2 103.2 31.5C103 31.6 102.8 31.5 102.6 31.5C102.6 31.3 102.6 31 102.7 30.9C103.3 30.3 104.1 29.7 104.9 28.9Z" fill="black"></path><path d="M164.7 28.9C165 29.4 165.3 29.9 165.7 30.4C164.7 30.8 163.8 31.2 162.9 31.6C162.7 31.7 162.5 31.5 162.3 31.5C162.4 31.3 162.4 31 162.5 30.9C163.3 30.3 164 29.7 164.7 28.9Z" fill="black"></path><path d="M186.9 30.5C185.7 31 184.7 31.4 183.4 32C183.8 30.4 185.1 30 185.8 28.9C186.2 29.5 186.5 29.9 186.9 30.5Z" fill="black"></path><path d="M190.6 29.1C191.2 29.8 191.6 30.1 191.7 30.6C191.8 31.2 191.4 31.8 190.7 31.7C190.3 31.6 189.7 31.1 189.7 30.8C189.7 30.3 190.2 29.8 190.6 29.1Z" fill="black"></path><path d="M232.3 31C231.8 31.2 231.4 31.7 230.9 31.6C230.5 31.5 230 30.9 230 30.6C230.1 30.2 230.7 29.7 231 29.7C231.4 29.7 231.8 30.2 232.2 30.6C232.3 30.6 232.3 30.8 232.3 31Z" fill="black"></path><path d="M292.2 30.9C291.8 31.1 291.3 31.6 290.9 31.6C290.5 31.6 290 30.9 290 30.6C290 30.2 290.6 29.6 290.9 29.6C291.3 29.6 291.7 30.1 292.2 30.4C292.2 30.6 292.2 30.7 292.2 30.9Z" fill="black"></path><path d="M111.1 30.7C110.3 31.2 109.9 31.7 109.5 31.6C109.1 31.5 108.8 30.9 108.4 30.6C108.8 30.3 109.1 29.7 109.5 29.7C110 29.6 110.4 30.1 111.1 30.7Z" fill="black"></path><path d="M155.9 49.9C155.3 50.2 154.9 50.6 154.7 50.6C154.4 50.5 154.1 50 153.9 49.7C154.2 49.5 154.5 49.1 154.8 49.1C155 49.1 155.3 49.5 155.9 49.9Z" fill="black"></path><path d="M217.3 49.9C216.7 50.3 216.3 50.7 216.1 50.6C215.8 50.5 215.5 50.1 215.2 49.8C215.5 49.6 215.8 49.2 216.1 49.1C216.4 49.1 216.7 49.5 217.3 49.9Z" fill="black"></path><path d="M126.4 48.7C126.8 49.2 127.2 49.5 127.2 49.8C127.2 50.1 126.7 50.6 126.4 50.5C126.1 50.4 125.6 50 125.6 49.7C125.5 49.6 126 49.2 126.4 48.7Z" fill="black"></path><path d="M24 60.4C25.4 61.8 24.5 63.3 24.8 64.8C24.2 64.8 23.8 64.9 23.2 64.9C23.5 63.4 22.7 61.9 24 60.4Z" fill="black"></path><path d="M40.4 60.4C41.8 61.8 41 63.4 41.2 64.8C40.6 64.8 40.2 64.8 39.6 64.8C39.8 63.4 39 61.8 40.4 60.4Z" fill="black"></path><path d="M13.6 37C14 37 14.3 37 14.6 37C14.6 37.6 14.7 38.2 14.7 38.9C15.4 39 16 39 16.6 39.1C16.6 39.5 16.6 39.8 16.6 40.2C16 40.2 15.4 40.3 14.7 40.3C14.7 40.9 14.6 41.5 14.6 42.1C13.6 42.3 13.6 42.3 13.4 40.4C13.1 40.4 12.8 40.3 12.5 40.3C12.2 40.3 11.9 40.3 11.5 40.3C11.5 39.9 11.4 39.6 11.4 39.3C11.5 39.2 11.5 39.1 11.5 39.1C12.1 39 12.6 39 13.3 38.9C13.5 38.2 13.6 37.7 13.6 37Z" fill="black"></path><path d="M48.3 56.7C48.2 56.1 48.2 55.5 48.1 54.8C47.4 54.8 46.7 54.8 45.9 54.8C45.9 54.7 45.9 54.6 45.9 54.5C47.1 54.5 48.3 54.5 49.5 54.5C49.5 54.6 49.5 54.7 49.5 54.8C49.2 54.9 49 54.9 48.6 55C48.6 55.5 48.6 56.1 48.6 56.7C48.5 56.6 48.4 56.6 48.3 56.7Z" fill="black"></path><path d="M15.9 55C15.4 54.9 15.2 54.8 14.9 54.8C14.9 54.7 14.9 54.6 14.9 54.5C16.1 54.5 17.3 54.5 18.5 54.5C18.5 54.6 18.5 54.7 18.5 54.8C18.2 54.8 17.8 54.8 17.5 54.8C17.2 54.8 16.8 54.8 16.4 54.9C16.3 55.6 16.2 56.2 16.2 56.8C16.1 56.8 16 56.8 15.9 56.8C15.9 56.1 15.9 55.6 15.9 55Z" fill="black"></path><path d="M49.3 39.5C48.7 38.7 48.1 38 47.4 37C49.1 36.7 49.4 38.2 50.4 38.5C51.3 38.2 51.6 36.7 52.9 36.9C53.1 38.3 51.7 38.5 51.2 39.7C51.6 40 52.1 40.4 52.5 40.9C52.7 41.2 52.7 41.6 52.8 42C52.4 42 52 42 51.7 41.7C51.2 41.3 50.9 40.8 50.5 40.4C49.6 41.1 48.8 41.7 47.9 42.5C47.5 40.8 49 40.5 49.3 39.5Z" fill="black"></path></g><defs><clipPath id="clip0"><rect width="312.1" height="82.5" fill="white"></rect></clipPath></defs></svg> 