<svg width="889" height="64" viewBox="0 0 889 64" fill="none" xmlns="http://www.w3.org/2000/svg">
<path d="M1.38283e-05 3.20454H12.1364L24.9546 34.4773H25.5L38.3182 3.20454H50.4546V49.75H40.9091V19.4545H40.5227L28.4773 49.5227H21.9773L9.93183 19.3409H9.54547V49.75H1.38283e-05V3.20454ZM64.358 62.8409C63.1307 62.8409 61.9792 62.7424 60.9034 62.5455C59.8428 62.3636 58.964 62.1288 58.2671 61.8409L60.4489 54.6136C61.5852 54.9621 62.608 55.1515 63.5171 55.1818C64.4413 55.2121 65.2368 55 65.9034 54.5455C66.5852 54.0909 67.1383 53.3182 67.5625 52.2273L68.1307 50.75L55.608 14.8409H65.7898L73.0171 40.4773H73.3807L80.6762 14.8409H90.9262L77.358 53.5227C76.7065 55.4015 75.8201 57.0379 74.6989 58.4318C73.5928 59.8409 72.1913 60.9242 70.4943 61.6818C68.7974 62.4545 66.7519 62.8409 64.358 62.8409ZM120.375 29.5682V49.75H110.693V14.8409H119.92V21H120.33C121.102 18.9697 122.398 17.3636 124.216 16.1818C126.034 14.9848 128.239 14.3864 130.83 14.3864C133.254 14.3864 135.367 14.9167 137.17 15.9773C138.973 17.0379 140.375 18.553 141.375 20.5227C142.375 22.4773 142.875 24.8106 142.875 27.5227V49.75H133.193V29.25C133.208 27.1136 132.663 25.447 131.557 24.25C130.451 23.0379 128.928 22.4318 126.989 22.4318C125.686 22.4318 124.534 22.7121 123.534 23.2727C122.549 23.8333 121.777 24.6515 121.216 25.7273C120.67 26.7879 120.39 28.0682 120.375 29.5682ZM160.46 50.4091C158.233 50.4091 156.248 50.0227 154.506 49.25C152.763 48.4621 151.384 47.303 150.369 45.7727C149.369 44.2273 148.869 42.303 148.869 40C148.869 38.0606 149.225 36.4318 149.938 35.1136C150.65 33.7955 151.619 32.7348 152.847 31.9318C154.074 31.1288 155.468 30.5227 157.028 30.1136C158.604 29.7045 160.256 29.4167 161.983 29.25C164.013 29.0379 165.65 28.8409 166.892 28.6591C168.134 28.4621 169.036 28.1742 169.597 27.7955C170.157 27.4167 170.438 26.8561 170.438 26.1136V25.9773C170.438 24.5379 169.983 23.4242 169.074 22.6364C168.18 21.8485 166.907 21.4545 165.256 21.4545C163.513 21.4545 162.127 21.8409 161.097 22.6136C160.066 23.3712 159.384 24.3258 159.051 25.4773L150.097 24.75C150.551 22.6288 151.445 20.7955 152.778 19.25C154.112 17.6894 155.831 16.4924 157.938 15.6591C160.059 14.8106 162.513 14.3864 165.301 14.3864C167.241 14.3864 169.097 14.6136 170.869 15.0682C172.657 15.5227 174.241 16.2273 175.619 17.1818C177.013 18.1364 178.112 19.3636 178.915 20.8636C179.718 22.3485 180.119 24.1288 180.119 26.2045V49.75H170.938V44.9091H170.665C170.104 46 169.354 46.9621 168.415 47.7955C167.475 48.6136 166.347 49.2576 165.028 49.7273C163.71 50.1818 162.188 50.4091 160.46 50.4091ZM163.233 43.7273C164.657 43.7273 165.915 43.447 167.006 42.8864C168.097 42.3106 168.953 41.5379 169.574 40.5682C170.195 39.5985 170.506 38.5 170.506 37.2727V33.5682C170.203 33.7652 169.786 33.947 169.256 34.1136C168.741 34.2652 168.157 34.4091 167.506 34.5455C166.854 34.6667 166.203 34.7803 165.551 34.8864C164.9 34.9773 164.309 35.0606 163.778 35.1364C162.642 35.303 161.65 35.5682 160.801 35.9318C159.953 36.2955 159.294 36.7879 158.824 37.4091C158.354 38.0152 158.119 38.7727 158.119 39.6818C158.119 41 158.597 42.0076 159.551 42.7045C160.521 43.3864 161.748 43.7273 163.233 43.7273ZM187.631 49.75V14.8409H196.858V21H197.267C197.994 18.9545 199.206 17.3409 200.903 16.1591C202.6 14.9773 204.631 14.3864 206.994 14.3864C209.388 14.3864 211.426 14.9848 213.108 16.1818C214.79 17.3636 215.911 18.9697 216.472 21H216.835C217.547 19 218.835 17.4015 220.699 16.2045C222.578 14.9924 224.797 14.3864 227.358 14.3864C230.616 14.3864 233.259 15.4242 235.29 17.5C237.335 19.5606 238.358 22.4848 238.358 26.2727V49.75H228.699V28.1818C228.699 26.2424 228.184 24.7879 227.153 23.8182C226.123 22.8485 224.835 22.3636 223.29 22.3636C221.532 22.3636 220.161 22.9242 219.176 24.0455C218.191 25.1515 217.699 26.6136 217.699 28.4318V49.75H208.313V27.9773C208.313 26.2652 207.82 24.9015 206.835 23.8864C205.866 22.8712 204.585 22.3636 202.994 22.3636C201.919 22.3636 200.949 22.6364 200.085 23.1818C199.237 23.7121 198.563 24.4621 198.063 25.4318C197.563 26.3864 197.313 27.5076 197.313 28.7955V49.75H187.631ZM261.915 50.4318C258.324 50.4318 255.233 49.7045 252.642 48.25C250.066 46.7803 248.081 44.7045 246.688 42.0227C245.294 39.3258 244.597 36.1364 244.597 32.4545C244.597 28.8636 245.294 25.7121 246.688 23C248.081 20.2879 250.044 18.1742 252.574 16.6591C255.119 15.1439 258.104 14.3864 261.528 14.3864C263.831 14.3864 265.975 14.7576 267.96 15.5C269.96 16.2273 271.703 17.3258 273.188 18.7955C274.688 20.2652 275.854 22.1136 276.688 24.3409C277.521 26.553 277.938 29.1439 277.938 32.1136V34.7727H248.46V28.7727H268.824C268.824 27.3788 268.521 26.1439 267.915 25.0682C267.309 23.9924 266.468 23.1515 265.392 22.5455C264.331 21.9242 263.097 21.6136 261.688 21.6136C260.218 21.6136 258.915 21.9545 257.778 22.6364C256.657 23.303 255.778 24.2045 255.142 25.3409C254.506 26.4621 254.18 27.7121 254.165 29.0909V34.7955C254.165 36.5227 254.483 38.0152 255.119 39.2727C255.771 40.5303 256.688 41.5 257.869 42.1818C259.051 42.8636 260.453 43.2045 262.074 43.2045C263.15 43.2045 264.134 43.053 265.028 42.75C265.922 42.447 266.688 41.9924 267.324 41.3864C267.96 40.7803 268.445 40.0379 268.778 39.1591L277.733 39.75C277.278 41.9015 276.347 43.7803 274.938 45.3864C273.544 46.9773 271.741 48.2197 269.528 49.1136C267.331 49.9924 264.794 50.4318 261.915 50.4318ZM299.068 49.75V14.8409H308.75V49.75H299.068ZM303.932 10.3409C302.492 10.3409 301.258 9.86363 300.227 8.90909C299.212 7.93939 298.705 6.7803 298.705 5.43182C298.705 4.09848 299.212 2.95454 300.227 2C301.258 1.0303 302.492 0.545452 303.932 0.545452C305.371 0.545452 306.598 1.0303 307.614 2C308.644 2.95454 309.159 4.09848 309.159 5.43182C309.159 6.7803 308.644 7.93939 307.614 8.90909C306.598 9.86363 305.371 10.3409 303.932 10.3409ZM345.551 24.7955L336.688 25.3409C336.536 24.5833 336.21 23.9015 335.71 23.2955C335.21 22.6742 334.551 22.1818 333.733 21.8182C332.93 21.4394 331.968 21.25 330.847 21.25C329.347 21.25 328.081 21.5682 327.051 22.2045C326.021 22.8258 325.506 23.6591 325.506 24.7045C325.506 25.5379 325.839 26.2424 326.506 26.8182C327.172 27.3939 328.316 27.8561 329.938 28.2045L336.256 29.4773C339.65 30.1742 342.18 31.2955 343.847 32.8409C345.513 34.3864 346.347 36.4167 346.347 38.9318C346.347 41.2197 345.672 43.2273 344.324 44.9545C342.991 46.6818 341.157 48.0303 338.824 49C336.506 49.9545 333.831 50.4318 330.801 50.4318C326.18 50.4318 322.498 49.4697 319.756 47.5455C317.028 45.6061 315.43 42.9697 314.96 39.6364L324.483 39.1364C324.771 40.5455 325.468 41.6212 326.574 42.3636C327.68 43.0909 329.097 43.4545 330.824 43.4545C332.521 43.4545 333.884 43.1288 334.915 42.4773C335.96 41.8106 336.491 40.9545 336.506 39.9091C336.491 39.0303 336.119 38.3106 335.392 37.75C334.665 37.1742 333.544 36.7348 332.028 36.4318L325.983 35.2273C322.574 34.5455 320.036 33.3636 318.369 31.6818C316.718 30 315.892 27.8561 315.892 25.25C315.892 23.0076 316.498 21.0758 317.71 19.4545C318.938 17.8333 320.657 16.5833 322.869 15.7045C325.097 14.8258 327.703 14.3864 330.688 14.3864C335.097 14.3864 338.566 15.3182 341.097 17.1818C343.642 19.0455 345.127 21.5833 345.551 24.7955ZM367.438 49.75V3.20454H385.801C389.316 3.20454 392.316 3.83333 394.801 5.09091C397.301 6.33333 399.203 8.09848 400.506 10.3864C401.824 12.6591 402.483 15.3333 402.483 18.4091C402.483 21.5 401.816 24.1591 400.483 26.3864C399.15 28.5985 397.218 30.2955 394.688 31.4773C392.172 32.6591 389.127 33.25 385.551 33.25H373.256V25.3409H383.96C385.839 25.3409 387.4 25.0833 388.642 24.5682C389.884 24.053 390.809 23.2803 391.415 22.25C392.036 21.2197 392.347 19.9394 392.347 18.4091C392.347 16.8636 392.036 15.5606 391.415 14.5C390.809 13.4394 389.877 12.6364 388.619 12.0909C387.377 11.5303 385.809 11.25 383.915 11.25H377.278V49.75H367.438ZM392.574 28.5682L404.142 49.75H393.278L381.96 28.5682H392.574ZM431.642 34.8864V14.8409H441.324V49.75H432.028V43.4091H431.665C430.877 45.4545 429.566 47.0985 427.733 48.3409C425.915 49.5833 423.695 50.2045 421.074 50.2045C418.741 50.2045 416.688 49.6742 414.915 48.6136C413.142 47.553 411.756 46.0455 410.756 44.0909C409.771 42.1364 409.271 39.7955 409.256 37.0682V14.8409H418.938V35.3409C418.953 37.4015 419.506 39.0303 420.597 40.2273C421.688 41.4242 423.15 42.0227 424.983 42.0227C426.15 42.0227 427.241 41.7576 428.256 41.2273C429.271 40.6818 430.089 39.8788 430.71 38.8182C431.347 37.7576 431.657 36.447 431.642 34.8864ZM459.023 50.4091C456.795 50.4091 454.811 50.0227 453.068 49.25C451.326 48.4621 449.947 47.303 448.932 45.7727C447.932 44.2273 447.432 42.303 447.432 40C447.432 38.0606 447.788 36.4318 448.5 35.1136C449.212 33.7955 450.182 32.7348 451.409 31.9318C452.636 31.1288 454.03 30.5227 455.591 30.1136C457.167 29.7045 458.818 29.4167 460.545 29.25C462.576 29.0379 464.212 28.8409 465.455 28.6591C466.697 28.4621 467.598 28.1742 468.159 27.7955C468.72 27.4167 469 26.8561 469 26.1136V25.9773C469 24.5379 468.545 23.4242 467.636 22.6364C466.742 21.8485 465.47 21.4545 463.818 21.4545C462.076 21.4545 460.689 21.8409 459.659 22.6136C458.629 23.3712 457.947 24.3258 457.614 25.4773L448.659 24.75C449.114 22.6288 450.008 20.7955 451.341 19.25C452.674 17.6894 454.394 16.4924 456.5 15.6591C458.621 14.8106 461.076 14.3864 463.864 14.3864C465.803 14.3864 467.659 14.6136 469.432 15.0682C471.22 15.5227 472.803 16.2273 474.182 17.1818C475.576 18.1364 476.674 19.3636 477.477 20.8636C478.28 22.3485 478.682 24.1288 478.682 26.2045V49.75H469.5V44.9091H469.227C468.667 46 467.917 46.9621 466.977 47.7955C466.038 48.6136 464.909 49.2576 463.591 49.7273C462.273 50.1818 460.75 50.4091 459.023 50.4091ZM461.795 43.7273C463.22 43.7273 464.477 43.447 465.568 42.8864C466.659 42.3106 467.515 41.5379 468.136 40.5682C468.758 39.5985 469.068 38.5 469.068 37.2727V33.5682C468.765 33.7652 468.348 33.947 467.818 34.1136C467.303 34.2652 466.72 34.4091 466.068 34.5455C465.417 34.6667 464.765 34.7803 464.114 34.8864C463.462 34.9773 462.871 35.0606 462.341 35.1364C461.205 35.303 460.212 35.5682 459.364 35.9318C458.515 36.2955 457.856 36.7879 457.386 37.4091C456.917 38.0152 456.682 38.7727 456.682 39.6818C456.682 41 457.159 42.0076 458.114 42.7045C459.083 43.3864 460.311 43.7273 461.795 43.7273ZM486.193 49.75V14.8409H495.875V49.75H486.193ZM491.057 10.3409C489.617 10.3409 488.383 9.86363 487.352 8.90909C486.337 7.93939 485.83 6.7803 485.83 5.43182C485.83 4.09848 486.337 2.95454 487.352 2C488.383 1.0303 489.617 0.545452 491.057 0.545452C492.496 0.545452 493.723 1.0303 494.739 2C495.769 2.95454 496.284 4.09848 496.284 5.43182C496.284 6.7803 495.769 7.93939 494.739 8.90909C493.723 9.86363 492.496 10.3409 491.057 10.3409ZM503.631 49.75V14.8409H513.017V20.9318H513.381C514.017 18.7652 515.085 17.1288 516.585 16.0227C518.085 14.9015 519.813 14.3409 521.767 14.3409C522.252 14.3409 522.775 14.3712 523.335 14.4318C523.896 14.4924 524.388 14.5758 524.813 14.6818V23.2727C524.358 23.1364 523.729 23.0152 522.926 22.9091C522.123 22.803 521.388 22.75 520.722 22.75C519.297 22.75 518.025 23.0606 516.903 23.6818C515.797 24.2879 514.919 25.1364 514.267 26.2273C513.631 27.3182 513.313 28.5758 513.313 30V49.75H503.631ZM529.818 49.75V14.8409H539.5V49.75H529.818ZM531.205 10.3409L536.023 0H544.977L538.045 10.3409H531.205ZM578.75 49.75H562.25V3.20454H578.886C583.568 3.20454 587.598 4.13636 590.977 6C594.356 7.84848 596.955 10.5076 598.773 13.9773C600.606 17.447 601.523 21.5985 601.523 26.4318C601.523 31.2803 600.606 35.447 598.773 38.9318C596.955 42.4167 594.341 45.0909 590.932 46.9545C587.538 48.8182 583.477 49.75 578.75 49.75ZM572.091 41.3182H578.341C581.25 41.3182 583.697 40.803 585.682 39.7727C587.682 38.7273 589.182 37.1136 590.182 34.9318C591.197 32.7348 591.705 29.9015 591.705 26.4318C591.705 22.9924 591.197 20.1818 590.182 18C589.182 15.8182 587.689 14.2121 585.705 13.1818C583.72 12.1515 581.273 11.6364 578.364 11.6364H572.091V41.3182ZM624.403 50.4318C620.873 50.4318 617.82 49.6818 615.244 48.1818C612.684 46.6667 610.706 44.5606 609.313 41.8636C607.919 39.1515 607.222 36.0076 607.222 32.4318C607.222 28.8258 607.919 25.6742 609.313 22.9773C610.706 20.2652 612.684 18.1591 615.244 16.6591C617.82 15.1439 620.873 14.3864 624.403 14.3864C627.934 14.3864 630.979 15.1439 633.54 16.6591C636.116 18.1591 638.1 20.2652 639.494 22.9773C640.888 25.6742 641.585 28.8258 641.585 32.4318C641.585 36.0076 640.888 39.1515 639.494 41.8636C638.1 44.5606 636.116 46.6667 633.54 48.1818C630.979 49.6818 627.934 50.4318 624.403 50.4318ZM624.449 42.9318C626.055 42.9318 627.396 42.4773 628.472 41.5682C629.547 40.6439 630.358 39.3864 630.903 37.7955C631.464 36.2045 631.744 34.3939 631.744 32.3636C631.744 30.3333 631.464 28.5227 630.903 26.9318C630.358 25.3409 629.547 24.0833 628.472 23.1591C627.396 22.2348 626.055 21.7727 624.449 21.7727C622.828 21.7727 621.464 22.2348 620.358 23.1591C619.267 24.0833 618.441 25.3409 617.881 26.9318C617.335 28.5227 617.063 30.3333 617.063 32.3636C617.063 34.3939 617.335 36.2045 617.881 37.7955C618.441 39.3864 619.267 40.6439 620.358 41.5682C621.464 42.4773 622.828 42.9318 624.449 42.9318ZM657.563 29.5682V49.75H647.881V14.8409H657.108V21H657.517C658.29 18.9697 659.585 17.3636 661.403 16.1818C663.222 14.9848 665.426 14.3864 668.017 14.3864C670.441 14.3864 672.555 14.9167 674.358 15.9773C676.161 17.0379 677.563 18.553 678.563 20.5227C679.563 22.4773 680.063 24.8106 680.063 27.5227V49.75H670.381V29.25C670.396 27.1136 669.85 25.447 668.744 24.25C667.638 23.0379 666.116 22.4318 664.176 22.4318C662.873 22.4318 661.722 22.7121 660.722 23.2727C659.737 23.8333 658.964 24.6515 658.403 25.7273C657.858 26.7879 657.578 28.0682 657.563 29.5682ZM697.648 50.4091C695.42 50.4091 693.436 50.0227 691.693 49.25C689.951 48.4621 688.572 47.303 687.557 45.7727C686.557 44.2273 686.057 42.303 686.057 40C686.057 38.0606 686.413 36.4318 687.125 35.1136C687.837 33.7955 688.807 32.7348 690.034 31.9318C691.261 31.1288 692.655 30.5227 694.216 30.1136C695.792 29.7045 697.443 29.4167 699.17 29.25C701.201 29.0379 702.837 28.8409 704.08 28.6591C705.322 28.4621 706.223 28.1742 706.784 27.7955C707.345 27.4167 707.625 26.8561 707.625 26.1136V25.9773C707.625 24.5379 707.17 23.4242 706.261 22.6364C705.367 21.8485 704.095 21.4545 702.443 21.4545C700.701 21.4545 699.314 21.8409 698.284 22.6136C697.254 23.3712 696.572 24.3258 696.239 25.4773L687.284 24.75C687.739 22.6288 688.633 20.7955 689.966 19.25C691.299 17.6894 693.019 16.4924 695.125 15.6591C697.246 14.8106 699.701 14.3864 702.489 14.3864C704.428 14.3864 706.284 14.6136 708.057 15.0682C709.845 15.5227 711.428 16.2273 712.807 17.1818C714.201 18.1364 715.299 19.3636 716.102 20.8636C716.905 22.3485 717.307 24.1288 717.307 26.2045V49.75H708.125V44.9091H707.852C707.292 46 706.542 46.9621 705.602 47.7955C704.663 48.6136 703.534 49.2576 702.216 49.7273C700.898 50.1818 699.375 50.4091 697.648 50.4091ZM700.42 43.7273C701.845 43.7273 703.102 43.447 704.193 42.8864C705.284 42.3106 706.14 41.5379 706.761 40.5682C707.383 39.5985 707.693 38.5 707.693 37.2727V33.5682C707.39 33.7652 706.973 33.947 706.443 34.1136C705.928 34.2652 705.345 34.4091 704.693 34.5455C704.042 34.6667 703.39 34.7803 702.739 34.8864C702.087 34.9773 701.496 35.0606 700.966 35.1364C699.83 35.303 698.837 35.5682 697.989 35.9318C697.14 36.2955 696.481 36.7879 696.011 37.4091C695.542 38.0152 695.307 38.7727 695.307 39.6818C695.307 41 695.784 42.0076 696.739 42.7045C697.708 43.3864 698.936 43.7273 700.42 43.7273ZM740.545 63.5682C737.409 63.5682 734.72 63.1364 732.477 62.2727C730.25 61.4242 728.477 60.2652 727.159 58.7955C725.841 57.3258 724.985 55.6742 724.591 53.8409L733.545 52.6364C733.818 53.3333 734.25 53.9848 734.841 54.5909C735.432 55.197 736.212 55.6818 737.182 56.0455C738.167 56.4242 739.364 56.6136 740.773 56.6136C742.879 56.6136 744.614 56.0985 745.977 55.0682C747.356 54.053 748.045 52.3485 748.045 49.9545V43.5682H747.636C747.212 44.5379 746.576 45.4545 745.727 46.3182C744.879 47.1818 743.788 47.8864 742.455 48.4318C741.121 48.9773 739.53 49.25 737.682 49.25C735.061 49.25 732.674 48.6439 730.523 47.4318C728.386 46.2045 726.682 44.3333 725.409 41.8182C724.152 39.2879 723.523 36.0909 723.523 32.2273C723.523 28.2727 724.167 24.9697 725.455 22.3182C726.742 19.6667 728.455 17.6818 730.591 16.3636C732.742 15.0455 735.098 14.3864 737.659 14.3864C739.614 14.3864 741.25 14.7197 742.568 15.3864C743.886 16.0379 744.947 16.8561 745.75 17.8409C746.568 18.8106 747.197 19.7652 747.636 20.7045H748V14.8409H757.614V50.0909C757.614 53.0606 756.886 55.5455 755.432 57.5455C753.977 59.5455 751.962 61.0455 749.386 62.0455C746.826 63.0606 743.879 63.5682 740.545 63.5682ZM740.75 41.9773C742.311 41.9773 743.629 41.5909 744.705 40.8182C745.795 40.0303 746.629 38.9091 747.205 37.4545C747.795 35.9848 748.091 34.2273 748.091 32.1818C748.091 30.1364 747.803 28.3636 747.227 26.8636C746.652 25.3485 745.818 24.1742 744.727 23.3409C743.636 22.5076 742.311 22.0909 740.75 22.0909C739.159 22.0909 737.818 22.5227 736.727 23.3864C735.636 24.2348 734.811 25.4167 734.25 26.9318C733.689 28.447 733.409 30.197 733.409 32.1818C733.409 34.197 733.689 35.9394 734.25 37.4091C734.826 38.8636 735.652 39.9924 736.727 40.7955C737.818 41.5833 739.159 41.9773 740.75 41.9773ZM775 29.5682V49.75H765.318V3.20454H774.727V21H775.136C775.924 18.9394 777.197 17.3258 778.955 16.1591C780.712 14.9773 782.917 14.3864 785.568 14.3864C787.992 14.3864 790.106 14.9167 791.909 15.9773C793.727 17.0227 795.136 18.5303 796.136 20.5C797.152 22.4545 797.652 24.7955 797.636 27.5227V49.75H787.955V29.25C787.97 27.0985 787.424 25.4242 786.318 24.2273C785.227 23.0303 783.697 22.4318 781.727 22.4318C780.409 22.4318 779.242 22.7121 778.227 23.2727C777.227 23.8333 776.439 24.6515 775.864 25.7273C775.303 26.7879 775.015 28.0682 775 29.5682ZM821.165 50.4318C817.574 50.4318 814.483 49.7045 811.892 48.25C809.316 46.7803 807.331 44.7045 805.938 42.0227C804.544 39.3258 803.847 36.1364 803.847 32.4545C803.847 28.8636 804.544 25.7121 805.938 23C807.331 20.2879 809.294 18.1742 811.824 16.6591C814.369 15.1439 817.354 14.3864 820.778 14.3864C823.081 14.3864 825.225 14.7576 827.21 15.5C829.21 16.2273 830.953 17.3258 832.438 18.7955C833.938 20.2652 835.104 22.1136 835.938 24.3409C836.771 26.553 837.188 29.1439 837.188 32.1136V34.7727H807.71V28.7727H828.074C828.074 27.3788 827.771 26.1439 827.165 25.0682C826.559 23.9924 825.718 23.1515 824.642 22.5455C823.581 21.9242 822.347 21.6136 820.938 21.6136C819.468 21.6136 818.165 21.9545 817.028 22.6364C815.907 23.303 815.028 24.2045 814.392 25.3409C813.756 26.4621 813.43 27.7121 813.415 29.0909V34.7955C813.415 36.5227 813.733 38.0152 814.369 39.2727C815.021 40.5303 815.938 41.5 817.119 42.1818C818.301 42.8636 819.703 43.2045 821.324 43.2045C822.4 43.2045 823.384 43.053 824.278 42.75C825.172 42.447 825.938 41.9924 826.574 41.3864C827.21 40.7803 827.695 40.0379 828.028 39.1591L836.983 39.75C836.528 41.9015 835.597 43.7803 834.188 45.3864C832.794 46.9773 830.991 48.2197 828.778 49.1136C826.581 49.9924 824.044 50.4318 821.165 50.4318ZM848.545 62.8409C847.318 62.8409 846.167 62.7424 845.091 62.5455C844.03 62.3636 843.152 62.1288 842.455 61.8409L844.636 54.6136C845.773 54.9621 846.795 55.1515 847.705 55.1818C848.629 55.2121 849.424 55 850.091 54.5455C850.773 54.0909 851.326 53.3182 851.75 52.2273L852.318 50.75L839.795 14.8409H849.977L857.205 40.4773H857.568L864.864 14.8409H875.114L861.545 53.5227C860.894 55.4015 860.008 57.0379 858.886 58.4318C857.78 59.8409 856.379 60.9242 854.682 61.6818C852.985 62.4545 850.939 62.8409 848.545 62.8409ZM883.54 50.3409C882.04 50.3409 880.752 49.8106 879.676 48.75C878.616 47.6742 878.085 46.3864 878.085 44.8864C878.085 43.4015 878.616 42.1288 879.676 41.0682C880.752 40.0076 882.04 39.4773 883.54 39.4773C884.994 39.4773 886.267 40.0076 887.358 41.0682C888.449 42.1288 888.994 43.4015 888.994 44.8864C888.994 45.8864 888.737 46.803 888.222 47.6364C887.722 48.4545 887.063 49.1136 886.244 49.6136C885.426 50.0985 884.525 50.3409 883.54 50.3409Z" fill="black"/>
</svg>
