<svg version="1.0" xmlns="http://www.w3.org/2000/svg" width="209.000000pt" height="241.000000pt" viewBox="0 0 209.000000 241.000000" preserveAspectRatio="xMidYMid meet">
  <g transform="translate(0.000000,241.000000) scale(0.066667,-0.066667)" fill="#000000" stroke="none">
    <path d="M 1301 3599 C 940 3562 538 3410 242 3199 C -46 2993 -56 2947 136 2692 C 256 2533 273 2520 380 2507 L 455 2498 L 452 2205 C 448 1902 467 1670 503 1549 C 529 1462 532 1464 423 1492 C 374 1504 309 1515 279 1515 C 218 1515 219 1522 239 1353 C 257 1195 242 1147 143 1055 C 24 944 34 889 215 667 C 456 369 785 148 1110 67 C 1831 -114 2567 159 2974 758 C 3093 933 3094 986 2977 1068 C 2894 1127 2891 1139 2897 1349 L 2903 1515 L 2850 1514 C 2799 1514 2711 1498 2646 1477 L 2614 1468 L 2644 1608 C 2666 1716 2675 1832 2681 2126 L 2688 2505 L 2740 2505 C 2840 2505 2887 2540 3006 2699 C 3168 2917 3170 2966 3017 3109 C 2647 3455 1919 3663 1301 3599 Z M 1925 3456 C 2341 3380 3000 3052 3000 2922 C 3000 2884 2810 2656 2764 2639 C 2654 2597 2617 2628 2685 2706 L 2731 2757 L 2644 2834 C 2119 3302 1052 3282 436 2792 L 400 2764 L 447 2707 C 503 2638 498 2625 413 2625 C 349 2625 346 2627 240 2760 C 111 2922 111 2934 241 3041 C 671 3393 1353 3562 1925 3456 Z M 1545 2985 C 1545 2490 1545 1995 1545 1995 L 1064 1999 L 584.997 2002.49 L 584.997 2894.985 C 595.138 2904.398 687.274 2956.939 749.996 2984.985 C 1294 2982 1545 2985 1545 2985 Z M 1574.992 2984.985 C 2244.64 2990.319 2266.488 2984.985 2426.988 2984.985 C 2475.791 2957.717 2517.776 2932.358 2551.487 2906.985 C 2555 2306 2558 1995 2558 1995 L 2066 1995 L 1575 1995 C 1575 2491 1574.992 2984.985 1574.992 2984.985 Z M 1185 1921 C 1185 1902 1197 1890 1219 1887 C 1258 1882 1280 1785 1242 1785 C 1230 1785 1222 1800 1222 1819 C 1222 1837 1216 1853 1208 1853 C 1199 1853 1193 1838 1193 1820 C 1193 1793 1185 1788 1137 1788 C 1073 1787 1042 1820 1067 1864 C 1082 1891 1140 1900 1140 1875 C 1140 1867 1130 1865 1118 1870 C 1097 1877 1094 1873 1095 1834 C 1095 1828 1113 1818 1133 1812 C 1171 1802 1171 1803 1165 1876 C 1161 1917 1164 1950 1172 1950 C 1179 1950 1185 1937 1185 1921 Z M 1607 1867 C 1611 1802 1608 1785 1590 1785 C 1573 1785 1568 1804 1568 1868 C 1568 1979 1600 1979 1607 1867 Z M 2102 1924 C 2087 1895 2121 1848 2138 1875 C 2157 1907 2205 1891 2205 1853 C 2205 1833 2212 1813 2220 1808 C 2229 1802 2235 1817 2235 1844 C 2235 1918 2319 1912 2328 1838 C 2332 1802 2328 1785 2315 1785 C 2305 1785 2298 1801 2300 1822 C 2301 1842 2296 1857 2288 1855 C 2279 1854 2273 1837 2273 1819 C 2274 1788 2267 1785 2202 1785 C 2129 1785 2099 1819 2153 1840 C 2165 1844 2175 1856 2175 1865 C 2175 1876 2169 1875 2157 1863 C 2147 1853 2123 1845 2105 1845 C 2086 1845 2070 1838 2070 1830 C 2070 1822 2080 1815 2093 1815 C 2105 1815 2115 1808 2115 1800 C 2115 1775 2057 1783 2041 1811 C 2027 1836 2026 1836 2025 1811 C 2025 1790 2012 1785 1961 1786 C 1926 1787 1906 1791 1916 1795 C 1927 1799 1935 1828 1935 1860 C 1935 1892 1927 1921 1916 1925 C 1906 1929 1914 1933 1935 1934 C 1971 1935 1972 1931 1967 1868 C 1964 1827 1968 1800 1978 1800 C 1995 1800 2060 1883 2075 1924 C 2080 1938 2091 1950 2100 1950 C 2111 1950 2111 1941 2102 1924 Z M 780 1913 C 780 1899 794 1890 817 1890 C 862 1890 876 1870 863 1821 C 848 1761 773 1775 772 1838 C 770 1888 756 1920 734 1920 C 714 1920 717 1824 738 1803 C 752 1789 748 1785 719 1785 C 685 1785 683 1789 688 1853 C 693 1916 673 1945 655 1901 C 650 1890 647 1893 646 1909 C 645 1930 658 1935 713 1935 C 763 1935 780 1929 780 1913 Z M 1440 1920 C 1440 1911 1425 1908 1405 1913 C 1379 1920 1370 1916 1370 1897 C 1370 1881 1379 1875 1397 1880 C 1415 1885 1425 1879 1425 1864 C 1425 1850 1416 1845 1403 1850 C 1387 1856 1380 1850 1380 1830 C 1380 1797 1418 1789 1430 1819 C 1435 1830 1438 1827 1439 1811 C 1440 1790 1427 1785 1377 1785 C 1328 1785 1318 1789 1332 1803 C 1356 1827 1355 1915 1331 1925 C 1321 1929 1341 1933 1376 1934 C 1411 1934 1440 1928 1440 1920 Z M 1755 1920 C 1755 1912 1748 1905 1740 1905 C 1732 1905 1725 1912 1725 1920 C 1725 1928 1732 1935 1740 1935 C 1748 1935 1755 1928 1755 1920 Z M 945 1875 C 945 1867 933 1865 919 1869 C 894 1877 894 1876 919 1856 C 954 1827 952 1785 916 1785 C 900 1785 882 1792 877 1802 C 870 1813 878 1815 902 1808 C 935 1799 935 1800 911 1820 C 875 1849 878 1890 915 1890 C 932 1890 945 1883 945 1875 Z M 1035 1861 C 1035 1845 1039 1822 1044 1809 C 1051 1790 1043 1785 1007 1785 C 962 1785 954 1811 974 1886 C 980 1907 1035 1884 1035 1861 Z M 1544 1868 C 1575 1832 1549 1783 1503 1788 C 1462 1793 1445 1826 1461 1868 C 1471 1896 1521 1896 1544 1868 Z M 1695 1853 C 1695 1833 1702 1813 1710 1808 C 1719 1802 1725 1817 1725 1844 C 1725 1907 1750 1902 1758 1838 L 1764 1785 L 1700 1785 C 1630 1785 1602 1810 1640 1838 C 1672 1861 1672 1877 1640 1864 C 1623 1858 1619 1861 1626 1872 C 1647 1906 1695 1893 1695 1853 Z M 1845 1875 C 1845 1867 1833 1865 1819 1869 C 1801 1875 1804 1868 1828 1848 C 1848 1832 1860 1812 1854 1802 C 1841 1781 1785 1779 1785 1800 C 1785 1808 1797 1810 1811 1806 C 1836 1798 1836 1799 1811 1819 C 1775 1849 1778 1890 1815 1890 C 1832 1890 1845 1883 1845 1875 Z M 2457 1834 C 2460 1800 2455 1785 2442 1785 C 2430 1785 2422 1800 2422 1819 C 2422 1837 2416 1853 2408 1853 C 2399 1853 2393 1837 2393 1819 C 2394 1800 2385 1785 2375 1785 C 2362 1785 2355 1804 2355 1838 C 2355 1917 2450 1912 2457 1834 Z M 1559.992 1739.991 C 1549 597 1559.992 565.497 1559.992 569.997 C 653.293 695.203 574 1689 593.997 1739.991 C 1072.495 1739.991 1559.992 1739.991 1559.992 1739.991 Z M 2536.487 1739.991 C 2532.558 1344.344 2363.966 747.627 1589.992 569.997 C 1589.992 608.997 1589.992 1739.991 1589.992 1739.991 C 2062.49 1739.991 2536.487 1739.991 2536.487 1739.991 Z M 452 1347 C 597 1297 781 1109 757 1035 C 740 981 695 1002 616 1103 C 529 1214 491 1225 417 1162 C 392 1141 369 1126 367 1128 C 358 1138 380 1365 390 1365 C 396 1365 423 1357 452 1347 Z M 2765 1264 C 2770 1208 2779 1146 2784 1125 C 2794 1089 2792 1089 2741 1137 C 2664 1210 2622 1200 2535 1088 C 2458 989 2426 972 2401 1019 C 2363 1089 2491 1250 2643 1326 C 2752 1380 2754 1379 2765 1264 Z M 529 1161 C 534 1156 524 1139 508 1123 C 468 1083 477 1071 701 843 C 1220 316 1914 310 2455 826 C 2646 1009 2698 1094 2633 1120 C 2620 1124 2614 1134 2618 1142 C 2637 1172 2686 1151 2770 1076 C 2818 1033 2878 983 2902 965 L 2947 933 L 2896 860 C 2597 435 2282 237 1757 144 C 1709 135 1703.022 131.696 1742.52 238.321 C 1751.164 255.61 1723.122 251.372 1722.348 249.824 L 1701 174 L 1677 131 L 1480 139 C 1026 158 610 379 330 751 L 195 930 L 251 980 C 324 1044 388 1099 435 1138 C 472 1169 512 1178 529 1161 Z M 617 1050 C 674 979 724 961 763 996 C 798 1027 833 995 818 946 C 792 865 708 879 613 979 C 565 1031 526 1081 526 1091 C 524 1129 570 1108 617 1050 Z M 2625 1071 C 2625 1058 2587 1008 2541 960 L 2457 872 L 2391 904 C 2318 939 2318 940 2341 1000 L 2357 1041 L 2375 1004 C 2406 941 2457 948 2528 1026 C 2594 1098 2625 1112 2625 1071 Z" style="paint-order: fill;"></path>
    <path d="M 1257 3334 C 1264 3201 1266 3195 1318 3195 C 1370 3195 1429 3258 1422 3305 C 1415 3349 1372 3371 1335 3349 C 1291 3321 1286 3325 1293 3383 C 1298 3423 1301.47 3437.7 1275 3435 C 1241.365 3431.569 1252 3419 1257 3334 Z M 1379 3301 C 1400 3264 1393.075 3252.534 1374.54 3231.46 C 1344.653 3197.478 1305 3220 1305 3269 C 1305 3335 1351 3355 1379 3301 Z"></path>
    <path d="M 1005.47 3381.386 C 986.47 3377.386 956.381 3370.233 974 3353.926 C 981 3339.926 995 3281 1005 3230 C 1018 3165 1029 3140 1043 3145 C 1057 3150 1059 3165 1049 3197 C 1033 3253 1045 3285 1081 3285 C 1116 3285 1140.776 3260.505 1128 3208 C 1113.456 3148.228 1142.074 3164.847 1153.074 3221.847 C 1168.074 3298.847 1104 3348 1053 3297 C 1035 3279 1026 3292 1017 3353 C 1014 3373 1022.47 3384.386 1005.47 3381.386 Z"></path>
    <path d="M1543 3342 c-62 -50 -39 -136 34 -129 61 6 118 75 94 114 -21 32 -95
41 -128 15z m74 -15 c26 -26 22 -86 -6 -97 -36 -14 -72 31 -60 76 10 42 37 50
66 21z"></path>
    <path d="M 1786.535 3298.438 C 1757.839 3225.414 1824 3198 1824 3198 C 1852 3201 1877 3197 1879 3190 C 1893 3149 1920.368 3218.812 1928 3274 C 1939.099 3354.261 1904 3363 1888 3286 C 1875 3220 1853 3200 1822 3225 C 1804 3240 1800 3259 1807 3295 C 1815 3337 1838.166 3340.639 1794.451 3350.451 C 1750.736 3360.263 1773.903 3340.542 1786.535 3298.438 Z"></path>
    <path d="M 2030 3240 C 2029 3183 2010.104 3161.729 2050 3165 C 2061.96 3165.981 2068 3171 2063 3179 C 2041 3214 2084 3271 2124 3261 C 2154 3253 2162 3256 2157 3272 C 2153 3283 2133.91 3296.361 2115.91 3295.361 C 2098.91 3295.361 2071.917 3281.827 2071.917 3288.827 C 2071.917 3294.827 2090.186 3317.655 2059 3315 C 2024.461 3312.06 2032 3301 2030 3240 Z"></path>
    <path d="M 821 3236 C 771 3198 782 3158 845 3153 C 905 3148 883.985 3106.074 824.985 3108.074 C 806.985 3108.074 823 3106 819 3095 C 805 3061 863 3073 899 3112 C 944 3159 931 3197 871 3191 C 847 3189 827 3194 826 3203 C 826 3211 831.043 3221.421 847.043 3220.421 C 863.043 3220.421 886.153 3228.233 891 3235 C 907.22 3257.648 854 3261 821 3236 Z"></path>
    <path d="M 2242 3241 C 2247 3233 2241 3203 2229 3173 C 2215 3141 2212 3117 2221 3112 C 2229 3107 2245 3126 2257 3155 C 2281 3212 2321 3237 2335 3202 C 2343 3180 2339 3152 2318 3101 C 2309 3080 2315 3075 2350 3075 C 2377 3075 2393.632 3084.361 2373 3088 C 2355.773 3091.038 2359 3110 2377 3153 C 2403 3215 2381 3250 2325 3236 C 2309 3231 2295 3234 2295 3241 C 2295 3249 2281 3255 2264 3255 C 2247 3255 2237 3249 2242 3241 Z"></path>
    <path d="M 652.41 3240.94 C 600.91 3210.54 508.305 3158.89 506.855 3161.16 C 508.455 3158.37 513.03 3148.75 513.938 3147.86 C 511.641 3145.59 561.068 3171.93 562.285 3172.45 C 564.207 3173.26 567.91 3111.54 576.41 3077.54 C 583.41 3048.04 601.218 2964.44 600.265 2963.46 C 599.312 2962.47 583.146 2956.09 585.327 2952.53 C 588.593 2947.18 589.349 2942.56 591.58 2942.51 C 655.16 2977.79 662.984 2982.37 662.387 2984.84 C 661.446 2988.72 658.184 2994.17 657.461 2994.64 C 656.738 2995.11 631.117 2981.54 627.117 2978.54 C 610.654 3032.49 606.668 3065.83 606.318 3067.35 C 605.727 3069.92 655.568 3095.09 656.959 3093.57 C 658.35 3092.05 712.062 3022.26 691.263 3009.85 C 685.861 3006.63 696.887 3000.32 706.19 3003.84 C 715.493 3007.37 735.786 3019.82 748.897 3028.55 C 753.38 3031.53 745.372 3038.96 743.775 3038.29 C 742.178 3037.61 734.583 3038.17 730.114 3035.9 C 694.614 3093.4 615.999 3203.31 624.999 3208.81 C 630.999 3212.31 658.646 3226.75 659.896 3229.13 C 661.146 3231.5 660.051 3230.95 652.41 3240.94 Z M 633.41 3101.54 C 621.41 3089.54 609.16 3089.04 599.91 3097.29 C 590.66 3105.54 584.41 3122.54 584.41 3145.54 L 584.41 3165.54 L 584.41 3185.54 L 589.205 3188.27 C 629.686 3138.86 637.16 3130.54 639.66 3122.54 C 642.16 3114.54 639.91 3108.04 633.41 3101.54 Z" style=""></path>
    <path d="M 2496 3139 C 2411 3081 2481 2947 2568 3002 C 2582 3011 2578 3015 2556 3015 C 2503 3015 2484 3051 2513 3096 C 2542 3141 2643.229 3099.028 2499.855 3076.292 C 2481.832 3073.434 2569.583 3070.307 2594 3077 C 2611.556 3081.812 2630 3074 2607 3107 C 2584 3143 2526 3160 2496 3139 Z"></path>
    <path d="M1095 2912 c0 -8 -13 -19 -30 -24 -16 -6 -30 -17 -30 -25 0 -8 6 -11
13 -7 8 5 21 -1 31 -12 16 -19 -102 -144 -137 -144 -5 0 -3 -24 5 -54 8 -29
11 -65 6 -79 -6 -13 -14 -62 -18 -107 -8 -87 -32 -125 -97 -159 -39 -20 -40
-25 -41 -150 0 -178 21 -138 26 50 1 30 10 49 22 49 16 0 19 -24 13 -112 l-7
-113 49 0 c37 0 46 5 40 23 -11 26 3 67 22 67 7 0 13 -20 13 -45 0 -61 30 -58
31 4 1 41 3 44 14 19 13 -30 13 -30 14 1 1 17 -15 46 -34 64 l-35 33 -41 -33
c-35 -27 -40 -40 -33 -79 7 -36 5 -41 -7 -20 -10 17 -11 60 -2 123 10 80 9 98
-8 98 -11 0 -17 7 -11 15 5 9 15 12 23 7 8 -5 14 -1 14 8 0 9 5 14 11 10 41
-23 102 47 106 122 l5 78 74 0 c41 0 74 -6 74 -14 0 -19 -44 -31 -95 -25 -35
4 -41 0 -37 -27 3 -21 13 -30 32 -27 20 4 25 -1 16 -15 -9 -15 -6 -15 14 1 14
11 25 14 25 5 0 -8 32 -36 71 -62 39 -26 72 -59 73 -73 2 -14 7 -50 13 -81 11
-54 -14 -72 -48 -35 -6 7 -2 7 10 1 14 -9 17 -7 10 5 -16 25 -47 21 -71 -9
-19 -25 -18 -25 10 -4 27 21 28 21 8 -4 -33 -42 -53 -9 -36 59 30 115 -33 193
-108 133 -59 -47 -41 -209 23 -212 68 -3 77 -6 68 -21 -6 -9 1 -11 16 -5 18 7
22 4 15 -8 -6 -9 -7 -31 -1 -48 14 -44 151 -35 146 10 -2 16 -6 75 -9 132 -6
100 -8 106 -60 143 -30 21 -54 50 -55 64 0 14 -8 30 -17 36 -11 7 -14 4 -7 -7
6 -9 4 -17 -5 -17 -9 0 -16 14 -16 31 0 17 7 27 15 22 8 -6 16 -1 16 10 12
195 11 216 -18 263 -17 27 -35 46 -41 43 -6 -4 -12 6 -13 21 -1 16 11 33 27
38 16 5 29 14 29 19 -1 17 -75 66 -75 50z m67 -221 c21 -43 22 -58 7 -71 -14
-13 -16 -13 -7 2 14 25 -31 93 -62 93 -53 0 -78 -42 -63 -108 15 -64 10 -81
-16 -65 -9 5 -16 44 -16 85 0 56 -5 72 -19 64 -13 -9 -13 -5 1 13 11 13 30 21
42 16 11 -5 21 -1 21 8 0 45 87 16 112 -37z m-29 -37 c14 -46 1 -49 -35 -6
-31 35 -31 37 -4 37 16 0 33 -14 39 -31z m-30 -58 c-18 -29 -38 -17 -38 25 0
37 2 39 24 16 14 -13 20 -32 14 -41z m-113 -16 c0 -25 -6 -45 -12 -45 -7 0
-10 20 -6 45 3 25 9 45 12 45 3 0 6 -20 6 -45z m135 -22 c0 -13 -13 -23 -30
-23 -16 0 -30 7 -30 15 0 8 10 10 23 5 12 -4 22 -1 22 8 0 10 3 17 8 17 4 0 7
-10 7 -22z m-135 -53 c0 -8 -7 -15 -16 -15 -9 0 -12 7 -6 15 5 8 12 15 15 15
4 0 7 -7 7 -15z m-7 -45 c-6 -8 -17 -15 -25 -15 -8 0 -11 7 -5 15 5 8 16 15
24 15 8 0 11 -7 6 -15z m-13 -40 c-5 -5 -14 -5 -20 0 -6 6 -1 10 10 10 11 0
16 -4 10 -10z m23 -33 c12 17 13 17 9 -1 -4 -11 -22 -23 -41 -26 -31 -5 -33
-2 -15 19 15 17 22 19 27 6 4 -14 9 -13 20 2z m120 -42 c0 -7 10 -26 21 -42
12 -16 20 -43 20 -60 -1 -22 -6 -17 -19 17 -23 63 -32 70 -55 43 -16 -20 -15
-22 5 -14 17 6 25 1 25 -15 0 -16 -12 -23 -36 -21 -29 3 -34 8 -23 28 7 14 10
29 6 35 -4 5 -3 6 3 2 16 -13 50 24 40 42 -5 10 -5 13 1 7 6 -5 12 -15 12 -22z
m192 -57 c0 -3 -8 -11 -17 -17 -11 -7 -14 -4 -7 7 11 17 24 23 24 10z m-217
-68 c-17 -7 -22 -13 -12 -14 11 -1 19 -13 19 -27 0 -21 -3 -22 -13 -6 -11 17
-15 17 -22 0 -4 -11 -8 -2 -9 21 -1 33 5 41 33 40 32 -1 32 -2 4 -14z m52 -37
c0 -13 -7 -23 -15 -23 -8 0 -10 10 -5 23 4 12 11 22 14 22 3 0 6 -10 6 -22z
m-149 -34 c17 -22 17 -23 0 -9 -11 10 -31 14 -44 10 -21 -7 -21 -6 -2 8 12 9
23 17 24 17 1 0 11 -12 22 -26z m239 -68 c0 -33 -5 -42 -13 -28 -12 19 -6 77
7 77 3 0 6 -22 6 -49z"></path>
    <path d="M1041 2383 c-7 -11 -4 -14 7 -7 17 11 23 24 10 24 -3 0 -11 -8 -17
-17z"></path>
    <path d="M1140 2040 c0 -8 7 -15 16 -15 9 0 12 7 7 15 -6 8 -13 15 -16 15 -4
0 -7 -7 -7 -15z"></path>
    <path d="M1920 2893 c-125 -85 -118 -62 -120 -388 -3 -363 -5 -335 27 -371
102 -118 250 -121 391 -7 l66 54 -10 281 c-14 379 -7 355 -128 432 -89 58
-140 57 -226 -1z m228 -30 l75 -48 -35 -27 c-73 -56 -115 -65 -214 -44 -155
32 -162 53 -45 126 96 60 115 60 219 -7z m90 -174 c4 -48 8 -178 10 -289 l3
-203 -42 -38 c-36 -32 -126 -89 -141 -89 -4 0 -3 291 1 428 1 9 15 17 32 18
35 3 74 30 74 52 0 7 -20 2 -45 -13 -24 -14 -48 -22 -53 -17 -12 12 -16 175
-4 168 6 -4 36 10 68 30 82 54 90 50 97 -47z m-300 39 c14 -7 39 -13 56 -13
35 0 35 -7 35 -315 0 -98 7 -162 17 -169 10 -6 10 -11 2 -11 -9 0 -15 -34 -14
-75 3 -91 -15 -96 -117 -31 -95 60 -94 55 -96 339 -3 331 -1 335 117 275z"></path>
    <path d="M2011 2884 c4 -44 27 -69 28 -30 1 22 -6 41 -14 41 -8 0 -15 -5 -14
-11z"></path>
    <path d="M2071 2884 c0 -6 21 -27 45 -46 29 -23 41 -27 35 -13 -9 25 -82 78
-80 59z"></path>
    <path d="M1920 2827 c-28 -34 -12 -38 21 -5 16 15 22 28 13 28 -8 0 -24 -10
-34 -23z"></path>
    <path d="M2070 2812 c0 -21 6 -35 14 -30 7 4 10 22 5 38 -10 41 -19 38 -19 -8z"></path>
    <path d="M1975 2810 c-5 -5 -10 -21 -10 -34 1 -19 4 -19 17 4 16 28 11 48 -7
30z"></path>
    <path d="M2041 2766 c1 -17 4 -21 9 -9 5 11 4 24 -1 29 -5 5 -8 -4 -8 -20z"></path>
    <path d="M2197 2579 c-6 -9 -6 -20 -2 -24 11 -11 40 8 40 26 0 19 -26 18 -38
-2z"></path>
    <path d="M1861 2693 c-17 -20 -14 -23 19 -23 36 0 38 -3 25 -38 -20 -52 -20
-52 21 -52 43 0 62 39 36 72 -17 20 -15 22 7 14 14 -6 26 -4 26 4 0 14 -28 21
-75 18 -12 0 -26 6 -31 14 -5 8 -17 5 -28 -9z"></path>
    <path d="M1845 2493 c0 -11 11 -18 25 -15 36 7 41 36 5 36 -16 0 -30 -10 -30
-21z"></path>
    <path d="M1950 2489 c0 -6 -13 -14 -30 -18 -34 -9 -44 -86 -10 -86 28 0 55 32
55 64 0 15 6 24 13 19 8 -4 18 2 22 14 6 14 -1 20 -21 19 -16 -1 -29 -7 -29
-12z"></path>
    <path d="M1950 2319 c0 -11 -10 -25 -22 -29 -30 -12 -30 -85 -2 -85 24 0 46
51 32 74 -5 8 -2 18 7 23 19 12 20 38 0 38 -8 0 -15 -9 -15 -21z m-20 -79 c-5
-5 -10 -1 -10 10 0 11 5 16 10 10 6 -5 6 -14 0 -20z"></path>
    <path d="M1845 2310 c0 -8 14 -15 30 -15 17 0 30 7 30 15 0 8 -13 15 -30 15
-16 0 -30 -7 -30 -15z"></path>
    <path d="M2075 1865 c6 -5 15 -5 20 0 6 6 1 10 -10 10 -11 0 -15 -4 -10 -10z"></path>
    <path d="M2160 1814 c0 -9 7 -12 15 -6 8 5 15 12 15 15 0 4 -7 7 -15 7 -8 0
-15 -7 -15 -16z"></path>
    <path d="M797 1844 c3 -19 15 -37 26 -41 13 -4 18 5 15 28 -3 19 -15 37 -26
41 -13 4 -18 -5 -15 -28z"></path>
    <path d="M990 1860 c0 -11 5 -15 10 -10 6 6 6 15 0 20 -5 6 -10 1 -10 -10z"></path>
    <path d="M990 1814 c0 -9 7 -12 15 -6 8 5 15 12 15 15 0 4 -7 7 -15 7 -8 0
-15 -7 -15 -16z"></path>
    <path d="M1485 1838 c0 -26 7 -38 19 -34 10 3 19 18 19 34 0 15 -9 30 -19 33
-12 4 -19 -8 -19 -33z"></path>
    <path d="M1650 1814 c0 -9 7 -12 15 -6 8 5 15 12 15 15 0 4 -7 7 -15 7 -8 0
-15 -7 -15 -16z"></path>
    <path d="M1023 1664 c-18 -16 -41 -61 -50 -99 -17 -68 -18 -68 -74 -61 -75 10
-131 -67 -74 -101 9 -6 15 -83 15 -180 0 -182 17 -218 103 -218 16 0 62 -36
102 -80 40 -44 91 -91 113 -106 21 -14 43 -43 49 -64 9 -37 11 -38 128 -33
120 6 180 30 137 57 -14 8 -15 15 -4 23 12 7 12 19 -1 43 -10 18 -19 36 -20
40 -6 44 -55 101 -81 95 -23 -6 -29 -1 -27 23 3 36 26 41 53 14 14 -14 18 -12
18 10 0 15 10 35 23 44 29 22 15 64 -26 77 -16 6 -37 3 -47 -7 -68 -68 -158
212 -91 286 29 32 17 58 -23 48 -16 -4 -41 -1 -56 8 -15 9 -19 16 -9 17 12 0
19 23 19 65 0 114 -100 171 -177 99z m129 -2 c29 -29 21 -44 -13 -23 -40 24
-74 -17 -74 -89 0 -28 -6 -50 -14 -50 -7 0 -24 -4 -37 -9 -19 -7 -21 1 -14 49
11 71 37 126 47 98 4 -14 13 -11 28 11 25 35 51 39 77 13z m-6 -51 c31 -80 1
-150 -45 -105 -35 35 -23 129 17 129 10 0 23 -11 28 -24z m-194 -157 c-33 -36
-87 -33 -94 5 -4 21 6 26 58 26 63 0 63 0 36 -31z m196 -7 l75 -11 -45 -20
c-62 -27 -113 -26 -113 2 0 26 -48 29 -91 6 -16 -8 -29 -12 -29 -8 0 16 83 52
105 47 12 -3 56 -10 98 -16z m-98 -256 c0 -151 -5 -230 -15 -223 -9 5 -16 97
-18 214 l-3 206 -9 -195 c-5 -108 -10 -157 -12 -109 -2 56 -9 86 -22 87 -15 1
-15 3 0 9 12 5 19 37 19 86 l0 79 -45 -7 c-55 -8 -70 -137 -19 -167 25 -14 25
-15 0 -16 -20 0 -26 -13 -26 -56 0 -42 -4 -51 -15 -34 -25 39 -19 330 7 330
12 0 28 -12 37 -26 10 -18 15 -20 16 -6 0 26 38 55 76 58 27 2 29 -10 29 -230z
m137 44 c-17 -16 -16 -26 8 -68 16 -27 27 -60 26 -72 -1 -12 -3 -30 -4 -39 -1
-9 -19 -25 -39 -36 -37 -19 -37 -54 -1 -40 23 9 -13 -73 -39 -89 -37 -23 -50
26 -15 53 24 18 30 30 19 37 -37 23 -22 392 17 410 42 18 67 -123 28 -156z
m-74 -66 c4 -195 -2 -239 -36 -239 -7 0 -12 101 -12 225 0 186 4 225 22 225
17 0 22 -39 26 -211z m-141 87 c-7 -96 -57 -100 -57 -5 0 60 4 69 31 69 27 0
30 -8 26 -64z m292 -111 c48 -72 50 -79 28 -102 -19 -20 -20 -24 -3 -20 14 3
25 -11 30 -39 5 -24 19 -47 31 -50 20 -6 20 -5 0 10 -12 8 -15 16 -6 16 31 0
58 -44 38 -64 -13 -13 -17 -12 -17 2 0 11 -7 14 -19 7 -47 -30 -70 -21 -64 25
3 26 0 42 -8 37 -45 -28 -14 -99 41 -95 34 3 57 -2 61 -13 4 -12 -8 -19 -30
-19 -21 0 -46 -10 -57 -23 -10 -13 -28 -20 -40 -15 -11 4 -17 1 -12 -6 5 -8 2
-18 -6 -23 -7 -4 -18 5 -23 20 -5 16 -19 33 -31 38 -12 4 -22 17 -22 27 0 14
5 13 16 -3 13 -17 14 -12 7 23 -8 42 -7 43 14 15 17 -22 23 -23 23 -6 0 12 -8
31 -19 42 -11 12 -11 16 -1 11 9 -5 20 4 24 20 6 21 21 30 51 30 36 1 39 3 16
16 -14 9 -35 11 -45 5 -15 -8 -14 -6 0 10 27 29 24 66 -11 122 -16 27 -30 59
-30 71 0 26 1 25 64 -69z m-289 -56 c0 -59 -3 -65 -30 -58 -40 10 -43 103 -4
114 15 3 28 7 30 8 2 1 4 -28 4 -64z m415 3 c-45 -29 -79 -13 -41 19 27 23 39
26 48 11 6 -10 4 -24 -7 -30z m-40 -33 c0 -3 -10 -10 -23 -15 -14 -5 -20 -2
-14 6 8 14 37 21 37 9z m83 -246 c-5 -5 -16 0 -24 12 -7 13 -14 16 -14 8 0 -7
15 -30 34 -51 18 -20 26 -33 17 -27 -9 5 -55 10 -101 12 -46 1 -80 8 -76 15 4
7 31 9 59 4 32 -5 52 -2 52 8 0 9 -19 17 -41 18 l-41 2 40 7 c22 3 48 16 59
28 16 20 20 20 32 -2 8 -13 9 -29 4 -34z"></path>
    <path d="M1208 840 c5 -8 12 -15 16 -15 4 0 4 7 -1 15 -6 8 -13 15 -17 15 -4
0 -4 -7 2 -15z"></path>
    <path d="M1250 830 c6 -6 15 -6 20 0 6 6 1 10 -10 10 -11 0 -15 -4 -10 -10z"></path>
    <path d="M2225 1633 c1 -38 -5 -65 -16 -69 -11 -4 -19 6 -19 24 0 17 -7 34
-15 40 -9 5 -15 -10 -15 -35 0 -24 -12 -55 -27 -68 -29 -26 -55 -34 -42 -13 4
7 1 22 -7 34 -11 17 -14 14 -14 -12 0 -19 -7 -34 -15 -34 -8 0 -15 17 -15 38
0 21 -6 35 -14 30 -22 -13 -9 -132 17 -148 35 -22 77 0 68 35 -5 17 -3 27 2
24 48 -30 197 112 197 185 0 28 -30 17 -30 -10 -1 -23 -5 -21 -30 8 l-28 34 3
-63z m-125 -194 c0 -8 -6 -14 -12 -14 -7 0 -13 10 -13 22 0 12 6 18 13 14 6
-4 12 -14 12 -22z"></path>
    <path d="M1695 1636 c0 -65 11 -84 80 -140 64 -52 158 -90 136 -54 -6 11 -4
14 6 8 8 -6 14 -37 11 -71 -2 -33 2 -63 8 -67 17 -10 0 -51 -34 -85 -15 -15
-27 -35 -27 -46 0 -10 -24 -35 -53 -54 -185 -126 -213 -186 -154 -328 33 -81
57 -102 57 -51 0 16 10 33 23 37 16 7 22 -1 22 -27 0 -38 54 -88 79 -73 7 5
10 22 6 39 -5 17 5 57 21 89 17 32 26 64 22 71 -5 8 11 28 36 45 24 17 46 26
48 19 3 -7 34 -38 69 -69 l63 -56 -13 42 c-7 23 -18 55 -24 70 -10 26 7 133
41 245 24 82 -45 266 -70 187 -13 -41 -68 -74 -68 -40 0 13 -8 23 -17 23 -11
0 -13 22 -6 68 6 45 3 84 -10 113 -24 54 -46 58 -33 7 10 -43 -33 -56 -49 -15
-4 12 -14 22 -21 22 -7 0 -9 -11 -4 -25 7 -16 3 -22 -11 -17 -12 4 -26 27 -31
51 -5 24 -10 35 -11 25 -1 -11 -10 -19 -19 -19 -11 0 -14 20 -7 64 10 59 9 61
-12 34 -21 -27 -23 -28 -24 -4 0 45 -30 28 -30 -18z m382 -344 c6 -67 -23
-142 -64 -166 -14 -7 -20 -19 -14 -25 6 -6 28 8 49 31 37 40 38 40 30 6 -35
-155 -36 -171 -15 -215 l22 -45 -45 48 c-25 27 -45 59 -45 72 0 12 -7 22 -17
22 -9 0 -12 -10 -8 -22 14 -35 -71 -75 -95 -45 -30 35 -49 25 -23 -11 31 -45
29 -81 -6 -138 -20 -32 -25 -54 -15 -69 25 -41 14 -53 -15 -16 -15 20 -24 46
-20 57 4 11 -7 36 -25 55 -18 19 -34 49 -35 66 -2 26 -6 28 -24 13 -19 -14
-21 -13 -13 9 6 14 4 26 -4 26 -26 0 -16 -70 14 -97 24 -21 26 -31 12 -55 -22
-34 -53 33 -55 119 -1 50 90 156 151 176 14 4 44 36 67 71 38 56 44 59 48 31
6 -40 41 -71 64 -57 13 8 12 14 -2 23 -11 6 -21 21 -24 32 -2 11 -9 38 -14 61
-5 23 -4 41 3 39 29 -8 80 20 89 49 13 41 21 29 29 -45z"></path>
    <path d="M2000 1385 c5 -5 15 -5 20 0 6 6 1 10 -10 10 -11 0 -15 -4 -10 -10z"></path>
    <path d="M498 862 c-51 -36 -40 -157 15 -157 28 0 28 2 -5 29 -42 34 -29 69
38 106 42 23 97 -12 75 -47 -4 -7 6 -13 24 -13 27 0 25 6 -21 53 -59 58 -77
62 -126 29z"></path>
    <path d="M 2486 771 C 2473 758 2607 641 2624 652 C 2633 657 2640 669 2640 677 C 2640 685 2621 682.8 2614 678.8 C 2607 674.8 2582.9 700 2554.9 728 C 2504.9 781 2502 787 2486 771 Z"></path>
    <path d="M560 680 c-16 -40 16 -72 71 -72 56 0 76 35 43 75 -24 30 -103 28
-114 -3z m100 -11 c0 -33 -43 -62 -63 -42 -12 12 -12 23 2 40 24 29 61 30 61
2z"></path>
    <path d="M2444 644 c-23 -43 4 -104 46 -104 40 0 72 67 50 102 -24 39 -75 40
-96 2z m75 -21 c21 -25 9 -53 -22 -53 -24 0 -56 51 -41 66 16 16 44 10 63 -13z"></path>
    <path d="M710 605 c5 -5 -5 -27 -22 -48 -38 -49 -9 -63 31 -15 43 53 73 17 30
-37 -38 -48 -8 -54 31 -6 42 51 71 15 31 -37 -25 -31 -27 -41 -10 -47 12 -4
25 3 30 17 4 14 17 38 27 52 16 22 16 29 -3 41 -43 27 -79 53 -98 71 -20 19
-66 28 -47 9z"></path>
    <path d="M2333 561 c-42 -42 -24 -103 30 -103 40 0 45 5 49 50 7 71 -34 98
-79 53z m49 -24 c27 -27 22 -57 -11 -57 -35 0 -52 23 -40 53 10 27 27 28 51 4z"></path>
    <path d="M2126 516 c-11 -11 66 -171 82 -171 17 0 16 5 -25 97 -37 85 -41 90
-57 74z"></path>
    <path d="M2201 486 c-18 -18 -12 -36 9 -27 23 8 48 -17 60 -61 4 -17 6 -3 5
30 -2 58 -43 89 -74 58z"></path>
    <path d="M910 439 c-29 -54 -32 -79 -10 -79 8 0 15 9 15 21 0 25 42 62 56 48
6 -6 3 -30 -7 -55 -13 -35 -12 -44 3 -44 11 0 24 17 29 38 5 20 20 37 34 37
23 0 23 -17 -2 -79 -8 -18 -4 -26 10 -26 12 0 23 8 24 19 1 10 6 37 12 60 8
37 5 41 -30 41 -21 0 -39 7 -39 15 0 8 -13 15 -29 15 -16 0 -31 8 -35 19 -3
10 -17 -3 -31 -30z"></path>
    <path d="M1893 417 c-32 -32 -21 -71 23 -80 67 -15 79 -20 79 -35 0 -27 -50
-32 -76 -8 -25 22 -26 22 -19 -8 17 -62 110 -30 110 38 0 34 -26 51 -76 51
-17 0 -29 10 -29 24 0 18 10 23 38 17 20 -4 37 -1 37 6 0 19 -66 16 -87 -5z"></path>
    <path d="M2064 411 c-56 -55 4 -137 62 -85 15 15 20 21 10 15 -26 -18 -66 4
-66 36 0 15 10 28 23 28 12 0 22 7 22 15 0 22 -25 18 -51 -9z"></path>
    <path d="M1129 366 c5 -5 3 -25 -4 -45 -16 -41 -2 -54 66 -60 43 -3 47 0 49
48 3 56 -20 71 -28 17 -2 -18 -17 -36 -33 -39 -23 -4 -27 2 -21 42 5 34 1 46
-16 46 -12 0 -18 -4 -13 -9z"></path>
    <path d="M1470 359 c0 -9 7 -12 15 -6 8 5 15 12 15 15 0 4 -7 7 -15 7 -8 0
-15 -7 -15 -16z"></path>
    <path d="M1292 281 c-2 -62 20 -64 30 -4 3 17 19 33 34 36 24 4 27 -2 19 -41
-8 -41 -5 -47 24 -47 18 0 27 5 19 11 -9 7 -15 32 -15 57 0 83 -107 72 -111
-12z"></path>
    <path d="M1540 327 c-13 -9 -13 -12 1 -12 12 0 15 -15 9 -45 -10 -49 19 -72
66 -53 23 10 22 13 -8 24 -48 19 -38 65 16 71 33 4 47 -4 67 -41 33 -57 42
-57 71 -2 28 55 29 76 3 76 -14 0 -18 -12 -14 -37 9 -45 -11 -50 -37 -10 -18
31 -140 50 -174 29z"></path>
    <path d="M1460 270 c-1 -37 5 -60 16 -60 10 0 17 24 17 60 0 78 -30 78 -33 0z"></path>
  </g>
</svg>