<svg width="268" height="262" viewBox="0 0 268 262" fill="none" xmlns="http://www.w3.org/2000/svg">
<mask id="mask0_1_31" style="mask-type:alpha" maskUnits="userSpaceOnUse" x="0" y="0" width="268" height="262">
<ellipse cx="134" cy="131" rx="134" ry="131" fill="black"/>
</mask>
<g mask="url(#mask0_1_31)">
<rect x="-12" y="-5" width="298" height="281" fill="black"/>
<path d="M245 234.5L220 214.5L209.5 250.5L245 234.5Z" fill="#5B160A"/>
<path d="M222 215.5C217.496 210.876 213.963 208.925 206 206.5L200.5 252.5L222 244V215.5Z" fill="#554F4F"/>
<path d="M15.5 203.5C24.377 194.526 30.7186 189.96 45.5 183L29.5 222.5L15.5 203.5Z" fill="#5B160A"/>
<path d="M210.5 202C200.712 185.756 201.291 166.983 199.5 138L102 124.5C95.9938 137.834 95.1256 145.699 82.5 158C77.3025 157.186 73.8129 157.703 66.5 160.5C56.6785 167.405 49.1893 174.559 31.5 194.5C28.1131 208.227 27.8057 213.693 29 221L40 291L210.5 259.5C208.082 233.586 207.783 220.567 210.5 202Z" fill="#302D2D"/>
<path d="M106.5 51C91.7 56.2 81 64.5 77.5 68L69 79.5L65 89.5" stroke="black"/>
<path d="M87.5 230L112 173L168 225C164.823 243.199 162.964 253.316 158 269.5L72 256C74.4154 254.142 80.5555 246.066 87.5 230Z" fill="#5B160A"/>
<path d="M89 193.5L108.5 153L169 226.5C155.11 247.291 146.867 260.182 138.5 266H100.5C94.4737 254.422 91.1816 247.626 89 222.5V193.5Z" fill="#18035C"/>
<path d="M91.5 189L112.5 154.5L175 203C173.927 230.68 163.736 239.866 125.5 243C99.3164 235.008 91.2951 223.772 91.5 189Z" fill="#D9D9D9"/>
<path d="M97.5 175.5L106 152.5L175 138.5L170.5 191L175 202.5C162.444 219.528 153.309 227.144 127 231.5C108.706 227.727 100.598 219.7 93 186.5L97.5 175.5Z" fill="#00C8FF"/>
<path d="M93 139.5V90.5H95.5L151 58.5L204 104.5L190 154.5L186.5 158.5H180C166.005 186.57 154.405 195.998 125.5 199C103.004 191.007 94.5968 179.988 93 139.5Z" fill="#00C8FF" stroke="#FF0000"/>
<path fill-rule="evenodd" clip-rule="evenodd" d="M137.325 41L100.825 52C91.412 56.3182 86.4678 59.5609 78.325 67C69.4198 77.4923 68.1518 80.9408 68.325 85.5C66.4496 87.2341 65.3613 88.6478 64.3584 89.9506C62.6893 92.1188 61.2566 93.98 56.825 96.5C49.7307 100.534 51.9293 117.081 54.825 117C55.723 120.848 60.3065 124.065 58.5 130.5C56.6935 136.935 56.6287 145.343 60.825 142.5C65.4755 158.544 75.563 152.623 89.825 149.5C91.4954 143.899 90.8629 141.802 89.825 138L104.825 142.5H108.825C111.786 141.799 112.566 140.742 112.825 138C107.218 132.756 102.725 131.746 94.325 130.5C91.4081 128.157 91.7019 126.843 94.325 124.5C96.9562 125.408 99.9899 123.944 108.825 117C115.679 120.587 119.667 122.677 123.325 124.5L128.325 120L124.825 117.5L118.325 114H112.825C110.571 111.266 111.132 109.734 112.825 107C114.874 103.486 115.525 102.512 116.325 101.5L118.325 92C117.501 89.1779 118.384 88.01 121.825 86.5C123.939 84.3447 126.469 83.3171 134.825 82H141.825L144.825 79C152.687 79.8481 156.8 80.3634 158.825 82C161.106 79.6503 162.504 78.6429 165.825 79C167.607 85.8341 168.149 89.6658 165.825 96.5C166.659 99.6389 168.044 101.393 173.825 104.5H182.825C183.711 112.682 184.226 117.192 185.325 124.5C185.325 129.772 185.325 132.728 185.325 138L189.825 144C192.233 150.229 189.825 153.5 189.825 161C189.825 168.5 194.825 170.5 194.825 170.5C201.279 176.496 204.142 177.51 208.825 178L206.825 163.5L211.825 159L216.325 170.5L219.825 153.5C219.494 147.082 219.494 143.038 219.825 135C223.295 119.098 225.27 114.02 228.825 109L224.325 101.5V98.5C207.397 80.5231 199.356 73.6008 187.825 58C183.996 54.5536 181.066 52.6821 173.825 49.5H165.825L152.5 41H137.325Z" fill="#FF0000" stroke="#FF0000"/>
<path d="M142 124.5C140.405 121.591 140.66 120.509 142 119C162.765 120.582 167.416 123.227 173.5 128.5C163.408 125.157 156.408 124.363 142 124.5Z" fill="#FF0000"/>
</g>
</svg>
