<svg width="207" height="32" viewBox="0 0 207 32" fill="none" xmlns="http://www.w3.org/2000/svg">
    <g clip-path="url(#clip0_3600_443)">
        <g clip-path="url(#clip1_3600_443)">
            <path
                d="M51.7245 9.41514C51.7245 8.88109 51.289 8.4467 50.7498 8.44373H48.9716C48.4324 8.44373 47.9968 8.87662 47.9938 9.40919V23.6755C47.9938 24.211 47.5538 24.6439 47.0131 24.6439H32.6582C32.116 24.6439 31.6775 24.2081 31.6775 23.6725V9.41514C31.6775 8.88406 31.2465 8.45265 30.7118 8.44373H28.9111C28.3779 8.45116 27.9484 8.87811 27.9438 9.40622V25.2063C27.9438 26.0096 28.2277 26.6998 28.7954 27.277C29.3661 27.8527 30.0675 28.1413 30.907 28.1413H48.7643C49.6804 28.1413 50.4344 27.7992 51.0276 27.1134C51.4977 26.5689 51.7275 25.8578 51.7275 25.1408V9.41514H51.7245Z"
                fill="#1E0D32" />
            <path
                d="M79.039 9.28721C78.4578 8.72489 77.7609 8.44373 76.9484 8.44373H56.9059C56.3638 8.44373 55.9252 8.8796 55.9252 9.41514V10.7808C55.9312 11.3029 56.3532 11.7269 56.8789 11.7403H75.1972V11.7448C75.7289 11.7448 76.1599 12.1628 76.1764 12.6849V15.0398C76.1704 15.5709 75.7364 15.9994 75.2002 16.0009H58.5204C57.7094 16.0009 57.0141 16.282 56.4298 16.8443C55.8501 17.4067 55.5573 18.1044 55.5573 18.9359V25.2048C55.5573 26.0364 55.8501 26.7341 56.4298 27.2964C57.0141 27.8587 57.7079 28.1399 58.5204 28.1399H76.8808C77.6047 28.1399 78.3226 27.9123 78.8723 27.4466C79.5647 26.8605 79.9101 26.1122 79.9101 25.2048V11.3788C79.9101 10.5472 79.6187 9.8525 79.0375 9.28721H79.039ZM76.1764 23.9537C76.1764 24.4907 75.7379 24.9251 75.1957 24.9251H60.2671C59.7294 24.9221 59.2954 24.4907 59.2924 23.9596V20.1483C59.2924 19.6113 59.731 19.1769 60.2731 19.1769H75.2032C75.7364 19.1814 76.1674 19.6069 76.175 20.135V23.9537H76.1764Z"
                fill="#1E0D32" />
            <path
                d="M104.436 12.9245V27.1819C104.436 27.7129 104.867 28.1443 105.401 28.1533H107.202C107.735 28.1458 108.165 27.7189 108.169 27.1908V11.3892C108.169 10.5859 107.886 9.89567 107.318 9.31847C106.747 8.74276 106.046 8.45416 105.206 8.45416H87.3489C86.4328 8.45416 85.6789 8.79632 85.0856 9.48211C84.6155 10.0266 84.3857 10.7377 84.3857 11.4547V27.1804C84.3857 27.7144 84.8213 28.1488 85.3605 28.1518H87.1387C87.6778 28.1518 88.1134 27.7189 88.1164 27.1863V12.9215C88.1179 12.386 88.5564 11.9531 89.0971 11.9531H103.452C103.994 11.9531 104.433 12.3889 104.433 12.9245H104.436Z"
                fill="#1E0D32" />
            <path
                d="M127.536 9.05367C127.536 8.51664 127.097 8.08226 126.555 8.08226H120.377C119.893 8.07928 119.501 7.69101 119.499 7.212V0.96993C119.499 0.438849 119.067 0.00743812 118.532 0H116.78C116.243 0.00446287 115.809 0.435874 115.808 0.966955V7.20753C115.808 7.69101 115.413 8.08226 114.925 8.08226H111.834C111.293 8.08226 110.856 8.51515 110.853 9.04921V10.7287C110.853 11.2658 111.292 11.7002 111.834 11.7002H114.931C115.41 11.7031 115.799 12.0855 115.806 12.56V27.1714C115.806 27.7085 116.245 28.1429 116.787 28.1429H118.532C119.065 28.1354 119.496 27.707 119.498 27.1774V12.5734C119.498 12.0944 119.885 11.7076 120.368 11.7002H126.573C127.099 11.6912 127.522 11.2732 127.534 10.7525V9.05367H127.536Z"
                fill="#1E0D32" />
            <path
                d="M131.017 27.3396C131.599 27.9019 132.295 28.183 133.108 28.183H153.15C153.693 28.183 154.131 27.7472 154.131 27.2116V25.846C154.125 25.3238 153.703 24.8998 153.177 24.8865H134.859V24.882C134.327 24.882 133.896 24.464 133.88 23.9418V20.4251C133.886 19.894 134.32 19.4656 134.856 19.4641H151.536C152.347 19.4641 153.042 19.1829 153.627 18.6206C154.206 18.0583 154.499 17.3606 154.499 16.529V11.4205C154.499 10.5889 154.206 9.89122 153.627 9.32889C153.042 8.76657 152.348 8.48541 151.536 8.48541H133.176C132.452 8.48541 131.734 8.71302 131.184 9.17865C130.492 9.76477 130.146 10.513 130.146 11.6734V25.5008C130.146 26.0795 130.438 26.7743 131.019 27.3381L131.017 27.3396ZM133.88 12.6731C133.88 12.136 134.318 11.7017 134.861 11.7017H149.789C150.327 11.7046 150.761 12.136 150.764 12.6671V15.2943C150.764 15.8313 150.325 16.2657 149.783 16.2657H134.853C134.32 16.2612 133.889 15.8358 133.881 15.3077V12.6731H133.88Z"
                fill="#1E0D32" />
            <path
                d="M205.794 9.28574C205.213 8.72342 204.516 8.44226 203.703 8.44226H183.661C183.119 8.44226 182.68 8.87813 182.68 9.41368V10.7793C182.686 11.3015 183.108 11.7254 183.634 11.7388H201.952V11.7433C202.484 11.7433 202.915 12.1613 202.931 12.6835V15.0384C202.925 15.5695 202.491 15.9979 201.955 15.9994H185.275C184.464 15.9994 183.769 16.2805 183.185 16.8429C182.605 17.4052 182.312 18.1029 182.312 18.9345V25.2033C182.312 26.0349 182.605 26.7326 183.185 27.2949C183.769 27.8572 184.463 28.1384 185.275 28.1384H203.636C204.36 28.1384 205.078 27.9108 205.627 27.4452C206.32 26.859 206.665 26.1108 206.665 25.2033V11.3773C206.665 10.5458 206.374 9.85104 205.793 9.28574H205.794ZM202.931 23.9522C202.931 24.4893 202.493 24.9236 201.951 24.9236H187.022C186.484 24.9207 186.05 24.4893 186.047 23.9582V20.1469C186.047 19.6098 186.486 19.1755 187.028 19.1755H201.958C202.491 19.1799 202.922 19.6054 202.93 20.1335V23.9522H202.931Z"
                fill="#1E0D32" />
            <path
                d="M179.896 26.8278L171.664 18.8036C171.316 18.4569 171.313 17.8991 171.655 17.5495L179.687 9.75881C180.071 9.40922 180.172 8.89897 179.914 8.62078C179.801 8.4988 179.637 8.44227 179.457 8.44524H176.727C176.563 8.44524 176.39 8.48094 176.224 8.55384C176.073 8.61929 175.943 8.70855 175.838 8.81268L169.276 15.2749C168.923 15.5977 168.375 15.5918 168.031 15.2556L161.525 8.81268C161.42 8.70855 161.289 8.61929 161.139 8.55384C160.971 8.48094 160.798 8.44524 160.633 8.44524H157.775C157.594 8.44227 157.431 8.50028 157.318 8.62227C157.076 8.8826 157.15 9.34674 157.476 9.69187L165.539 17.5807C165.891 17.9303 165.891 18.4956 165.539 18.8437L157.273 26.9007C156.95 27.2458 156.877 27.707 157.118 27.9658C157.231 28.0878 157.395 28.1443 157.575 28.1414H160.269C160.434 28.1414 160.609 28.1057 160.777 28.0313C160.927 27.9658 161.058 27.8766 161.163 27.7724L167.929 21.1049C168.283 20.7821 168.833 20.791 169.177 21.1302L175.917 27.7724C176.022 27.8766 176.153 27.9658 176.303 28.0313C176.471 28.1042 176.644 28.1399 176.809 28.1399H179.67C179.849 28.1429 180.011 28.0848 180.124 27.9643C180.382 27.6862 180.28 27.1774 179.897 26.8263L179.896 26.8278Z"
                fill="#1E0D32" />
            <path d="M12.6248 22.6685L12.6278 24.6738H14.6343L12.6248 22.6685Z" fill="#12A085" />
            <path
                d="M22.462 9.44197C21.9228 8.9823 21.2185 8.75916 20.5066 8.75916H2.97671C2.26482 8.75916 1.55894 8.9823 1.01827 9.44197C0.337921 10.0192 0 10.7526 0 11.6422V25.2257C0 26.1153 0.337921 26.8472 1.01677 27.4244C1.55744 27.884 2.26332 28.1087 2.97521 28.1087H20.5066C21.2185 28.1087 21.9228 27.884 22.4635 27.4244C23.1409 26.8472 23.4803 26.1153 23.4803 25.2257V11.6422C23.4803 10.7526 23.1409 10.0192 22.462 9.44197ZM4.64229 24.6723C4.10462 24.6723 3.66757 24.2394 3.66757 23.7068V13.1595H3.67508C3.67508 12.6285 4.10762 12.1971 4.64379 12.1941H18.883C19.4012 12.2179 19.8127 12.6389 19.8127 13.1566V24.6708H4.64229V24.6723Z"
                fill="#1E0D32" />
            <path
                d="M26.1071 32.2666H22.7564C22.4215 32.2666 22.1016 32.1342 21.8658 31.8991L12.6233 22.6699H17.7927L26.5336 31.2371C26.9211 31.615 26.6508 32.2681 26.1071 32.2681V32.2666Z"
                fill="#19E5C0" />
        </g>
    </g>
    <defs>
        <clipPath id="clip0_3600_443">
            <rect width="206.667" height="32" fill="white" />
        </clipPath>
        <clipPath id="clip1_3600_443">
            <rect width="206.667" height="32.2665" fill="white" />
        </clipPath>
    </defs>
</svg>